<svg width="113" height="56" viewBox="0 0 113 56" fill="none" xmlns="http://www.w3.org/2000/svg">
<path d="M105.809 0H66.0332V25.9779H105.809V0Z" fill="url(#paint0_linear)"/>
<path d="M39.7755 0H0V25.9779H39.7755V0Z" fill="url(#paint1_linear)"/>
<path d="M39.7321 6.6438V33.0882H66.077V6.6438H39.7321ZM45.1068 28.4662H44.1612C44.1612 28.4662 44.155 27.4958 44.155 23.1537C44.155 22.3823 44.1861 18.3824 44.1861 18.3824H45.0819C45.0819 18.3824 45.1192 22.4507 45.1192 23.1723C45.1192 27.5082 45.1068 28.4662 45.1068 28.4662ZM48.4349 28.4662H47.4893C47.4893 28.4662 47.4769 27.4958 47.4769 23.1537C47.4769 22.3823 47.5142 18.3824 47.5142 18.3824H48.41C48.41 18.3824 48.4473 22.4507 48.4473 23.1723C48.4473 27.5082 48.4349 28.4662 48.4349 28.4662ZM51.7568 28.4662H50.8112C50.8112 28.4662 50.7988 27.4958 50.7988 23.1537C50.7988 22.3823 50.8299 18.3824 50.8299 18.3824H51.7257C51.7257 18.3824 51.763 22.4507 51.763 23.1723C51.7692 27.5082 51.7568 28.4662 51.7568 28.4662ZM55.0849 28.4662H54.1393C54.1393 28.4662 54.1269 27.4958 54.1269 23.1537C54.1269 22.3823 54.158 18.3824 54.158 18.3824H55.0538C55.0538 18.3824 55.0973 22.4507 55.0973 23.1723C55.0973 27.5082 55.0849 28.4662 55.0849 28.4662ZM58.413 28.4662H57.4674C57.4674 28.4662 57.455 27.4958 57.455 23.1537C57.455 22.3823 57.4861 18.3824 57.4861 18.3824H58.3819C58.3819 18.3824 58.4254 22.4507 58.4254 23.1723C58.4254 27.5082 58.413 28.4662 58.413 28.4662ZM61.7349 28.4662H60.7893C60.7893 28.4662 60.7831 27.4958 60.7831 23.1537C60.7831 22.3823 60.8142 18.3824 60.8142 18.3824H61.71C61.71 18.3824 61.7535 22.4507 61.7535 23.1723C61.7473 27.5082 61.7349 28.4662 61.7349 28.4662ZM62.4378 14.2642L52.9636 12.2425L43.4521 14.2642L43.3463 13.6919L52.9636 11.608L62.5436 13.6919L62.4378 14.2642Z" fill="#AFAFAF"/>
<path d="M39.6138 40.5406C39.6138 40.2732 39.6138 39.8688 39.5392 39.7506C39.4832 39.6697 39.3277 39.6262 39.1286 39.5764V39.4396C39.3215 39.4582 39.6263 39.4707 39.8689 39.4707H40.1115C40.5407 39.4707 41.2872 39.4396 41.9031 39.4396C41.8346 39.7568 41.7911 40.1114 41.76 40.2732H41.6231C41.5983 40.1487 41.5796 39.8812 41.4738 39.8004C41.3619 39.7071 41.1006 39.7071 40.8829 39.7071C40.6651 39.7071 40.6278 39.7071 40.1737 39.7506C40.1426 39.8439 40.1239 40.2732 40.1239 40.5406V42.158C40.1239 42.4255 40.1239 42.8299 40.1986 42.9481C40.2546 43.0289 40.5158 43.0849 40.7149 43.1223V43.2591C40.5221 43.2405 40.1115 43.228 39.8689 43.228C39.6263 43.228 39.3215 43.2467 39.1286 43.2591V43.1223C39.3277 43.0725 39.4832 43.0289 39.5392 42.9481C39.6138 42.8299 39.6138 42.4318 39.6138 42.158V40.5406ZM43.8066 40.4722C44.7771 40.4722 45.225 41.1876 45.225 41.8905C45.225 42.6992 44.4536 43.3027 43.6947 43.3027C42.7242 43.3027 42.2763 42.5064 42.2763 41.8097C42.2825 41.001 43.0539 40.4722 43.8066 40.4722ZM42.7864 41.7537C42.7864 42.4007 43.0539 43.0787 43.7506 43.0787C44.3976 43.0787 44.7149 42.5997 44.7149 41.9528C44.7149 41.3058 44.4474 40.7024 43.7506 40.7024C43.1037 40.7024 42.7864 41.1067 42.7864 41.7537ZM47.3151 43.3027C46.3945 43.3027 45.7662 42.7552 45.7662 41.9154C45.7662 41.0259 46.4007 40.4722 47.3151 40.4722C47.6884 40.4722 47.9248 40.5842 48.2669 40.634C48.2234 40.8268 48.2047 40.9885 48.1798 41.2623H48.0492C47.987 41.0632 47.9061 40.8952 47.819 40.833C47.7133 40.7522 47.5266 40.6899 47.2778 40.6899C46.6433 40.6899 46.27 41.1814 46.27 41.8346C46.27 42.5064 46.606 43.0849 47.3462 43.0849C47.5702 43.0849 47.7692 43.0227 47.9061 42.917C48.0119 42.8361 48.1238 42.6308 48.1923 42.4566H48.3229C48.2918 42.637 48.2607 42.7863 48.2171 43.1285C47.8812 43.2156 47.6199 43.3027 47.3151 43.3027ZM49.9216 41.4116L50.382 42.2265H50.4006L50.8672 41.2436C50.9729 41.0196 51.0165 40.9201 51.0165 40.8268C51.0165 40.7335 50.8112 40.6837 50.6308 40.6526V40.522C50.8299 40.5406 50.9978 40.5469 51.2093 40.5469C51.3835 40.5469 51.5141 40.5406 51.6634 40.522V40.6526C51.5826 40.6775 51.4893 40.7024 51.4146 40.7522C51.3151 40.8081 51.2342 41.0134 51.0662 41.368L50.4753 42.5935C50.1705 43.2218 50.0398 43.3027 49.7599 43.3027C49.6355 43.3027 49.5173 43.2716 49.3929 43.2218C49.3929 42.9294 49.3742 42.6868 49.3618 42.5562H49.5048C49.5608 42.693 49.6168 42.8174 49.6728 42.8921C49.735 42.9854 49.7972 43.0103 49.8656 43.0103C49.9838 43.0103 50.0771 42.9232 50.1705 42.7179L49.3991 41.424C49.2062 41.1005 49.0445 40.8081 48.9263 40.7522C48.8392 40.7148 48.7086 40.6713 48.6464 40.6526V40.522C48.8143 40.5406 49.0632 40.5469 49.2809 40.5469C49.4737 40.5469 49.7288 40.5406 49.9154 40.522V40.6526C49.8221 40.6775 49.6479 40.721 49.6479 40.8268C49.6292 40.9077 49.7163 41.057 49.9216 41.4116ZM52.6899 43.228C52.5468 43.228 52.3353 43.2405 52.1984 43.3338C52.0802 43.4209 51.9745 43.763 51.8998 43.9372H51.7567C51.7879 43.6697 51.8003 43.2031 51.8065 42.9792C51.9123 42.9978 51.9869 43.0041 52.0927 43.0041H52.1611C52.2606 42.8921 52.3726 42.6993 52.4535 42.4193C52.553 42.0523 52.609 41.7475 52.6588 41.3556C52.6774 41.2187 52.6836 41.1254 52.6836 41.0134C52.6836 40.9263 52.665 40.8641 52.6277 40.8019C52.5779 40.7148 52.385 40.6713 52.2295 40.6464V40.5033C52.4224 40.522 52.6401 40.5344 52.8827 40.5344H54.0087C54.2513 40.5344 54.5188 40.5158 54.7178 40.5033V40.6464C54.5188 40.6962 54.3881 40.7086 54.3508 40.7957C54.2948 40.9139 54.2824 41.1192 54.2824 41.3369V42.4193C54.2824 42.637 54.301 42.861 54.3259 42.9356C54.3446 42.9792 54.3943 43.0041 54.5561 43.0041C54.6432 43.0041 54.7489 42.9854 54.836 42.973C54.7925 43.1596 54.7365 43.6324 54.6929 43.9372H54.5561C54.4939 43.7132 54.4628 43.4084 54.357 43.3089C54.2886 43.2467 54.0522 43.2218 53.7349 43.2218H52.6899V43.228ZM53.8345 41.3493C53.8345 41.1378 53.8283 40.9139 53.8034 40.7833C53.7101 40.7708 53.6105 40.7646 53.4861 40.7646H53.3555C53.2186 40.7646 53.0569 40.7646 53.0071 40.8392C52.9511 40.9139 52.9325 41.0259 52.9014 41.2374C52.8765 41.4675 52.8578 41.5671 52.8143 41.8221C52.7645 42.1269 52.7147 42.3695 52.6339 42.5873C52.5717 42.7677 52.5219 42.8921 52.4473 43.0103H53.8096C53.8345 42.8921 53.8345 42.6433 53.8345 42.4255V41.3493ZM56.8889 42.4255C56.752 42.4131 56.6338 42.4131 56.497 42.4131H56.3352C56.1984 42.4131 56.0304 42.4131 55.8998 42.4255L55.7878 42.7117C55.7567 42.7863 55.7131 42.8921 55.7131 42.9605C55.7131 43.0663 55.9122 43.0912 56.0864 43.1347V43.2529C55.9495 43.2342 55.7567 43.2218 55.4705 43.2218C55.2466 43.2218 55.1222 43.2405 55.0102 43.2529V43.1347C55.116 43.116 55.2155 43.0912 55.2964 43.0476C55.4021 42.9854 55.4705 42.8112 55.5327 42.6619L56.4223 40.4784H56.553L57.5047 42.6868C57.5732 42.8299 57.6105 42.9481 57.6727 43.0041C57.7349 43.0663 57.8531 43.1036 57.9775 43.1347V43.2529C57.8904 43.2405 57.5794 43.228 57.4301 43.228C57.0817 43.228 56.8702 43.2405 56.7458 43.2529V43.1347C56.9013 43.1036 57.1066 43.0601 57.1066 42.9605C57.1066 42.8983 57.0506 42.7863 57.0195 42.7179L56.8889 42.4255ZM56.4907 42.1954C56.6276 42.1954 56.7147 42.1954 56.7893 42.1829L56.3912 41.2187H56.3726L55.9869 42.1891C56.0677 42.2016 56.1921 42.2016 56.329 42.2016H56.4907V42.1954ZM59.1283 42.4318C59.1283 42.6495 59.1408 42.8548 59.1906 42.973C59.2279 43.0601 59.4145 43.0725 59.6633 43.1223V43.2529C59.4145 43.2342 59.1408 43.228 58.8982 43.228C58.6556 43.228 58.4316 43.2342 58.2388 43.2529V43.1223C58.4378 43.0725 58.5685 43.0538 58.6058 42.973C58.6618 42.8548 58.668 42.6495 58.668 42.4318V41.3493C58.668 41.1316 58.6556 40.9263 58.6058 40.8081C58.5685 40.721 58.4378 40.7086 58.2388 40.6588V40.5282C58.4316 40.5469 58.6307 40.5531 58.8235 40.5531C59.0101 40.5531 59.3772 40.5095 59.5203 40.5095C60.2232 40.5095 60.5964 40.8392 60.5964 41.3556C60.5964 41.8346 60.1983 42.1954 59.6011 42.1954C59.4954 42.1954 59.2963 42.1643 59.2341 42.1332V42.0025C59.2901 42.015 59.4207 42.0212 59.5265 42.0212C60.0241 42.0212 60.0863 41.5982 60.0863 41.3867C60.0863 40.8019 59.7318 40.721 59.5203 40.721C59.4207 40.721 59.2652 40.7273 59.1408 40.7584C59.1221 40.9014 59.1221 41.1316 59.1221 41.3493V42.4318H59.1283ZM62.5995 43.3027C61.6726 43.3027 61.0506 42.7552 61.0506 41.9154C61.0506 41.0259 61.6851 40.4722 62.5995 40.4722C62.9728 40.4722 63.2092 40.5842 63.5513 40.634C63.5078 40.8268 63.4891 40.9885 63.4642 41.2623H63.3336C63.2714 41.0632 63.1967 40.8952 63.1096 40.833C63.0039 40.7522 62.8173 40.6899 62.5684 40.6899C61.9277 40.6899 61.5607 41.1814 61.5607 41.8346C61.5607 42.5064 61.8966 43.0849 62.6369 43.0849C62.8608 43.0849 63.0599 43.0227 63.1967 42.917C63.2962 42.8361 63.4144 42.6308 63.4829 42.4566H63.6135C63.5824 42.637 63.5513 42.7863 63.5078 43.1285C63.1656 43.2156 62.8981 43.3027 62.5995 43.3027ZM64.9883 41.3493C64.9883 41.1316 64.9821 40.9761 64.9634 40.777C64.8577 40.7646 64.7146 40.7646 64.6213 40.7646C64.528 40.7646 64.3538 40.7708 64.2418 40.8517C64.1547 40.9139 64.1174 41.0259 64.049 41.2187H63.9059C63.937 41.001 63.9619 40.7397 63.9743 40.5158C64.1672 40.5344 64.472 40.5469 64.7955 40.5469H65.6353C65.9587 40.5469 66.2138 40.5344 66.5186 40.5158C66.4751 40.7895 66.4502 40.9388 66.4191 41.2187H66.276C66.2573 41.0881 66.2138 40.9015 66.1391 40.8392C66.0707 40.7833 65.9587 40.7646 65.7534 40.7646C65.6975 40.7646 65.5295 40.7646 65.4673 40.777C65.4424 40.9823 65.4362 41.1316 65.4362 41.3493V42.4318C65.4362 42.6495 65.4486 42.8548 65.5046 42.973C65.5419 43.0601 65.7286 43.0787 65.9276 43.1223V43.2529C65.7348 43.2342 65.4611 43.228 65.2185 43.228C64.9758 43.228 64.7021 43.2342 64.5031 43.2529V43.1223C64.7021 43.0787 64.8888 43.0538 64.9261 42.973C64.9821 42.8548 64.9883 42.6495 64.9883 42.4318V41.3493ZM68.0676 40.5158C68.4595 40.5158 68.9945 40.6277 68.9945 41.1378C68.9945 41.5297 68.5528 41.6853 68.3226 41.735V41.7537C68.8887 41.8346 69.206 42.0958 69.206 42.5064C69.206 42.9045 68.9136 43.2591 68.1609 43.2591C67.9369 43.2591 67.713 43.228 67.3957 43.228C67.1531 43.228 66.9852 43.2342 66.7923 43.2529V43.1223C66.9914 43.0725 67.1158 43.0041 67.1593 42.917C67.2215 42.7988 67.2215 42.6495 67.2215 42.4318V41.3493C67.2215 41.1316 67.2153 40.9263 67.1593 40.8081C67.1158 40.721 66.9914 40.7086 66.7923 40.6588V40.5282C66.9852 40.5469 67.1531 40.5531 67.3957 40.5531C67.5761 40.5531 67.7939 40.5158 68.0676 40.5158ZM67.8747 41.679C68.136 41.679 68.5092 41.5484 68.5092 41.1689C68.5092 40.7708 68.1733 40.721 67.9929 40.721C67.9183 40.721 67.7752 40.7273 67.7068 40.7397C67.6881 40.8517 67.6757 41.1254 67.6757 41.3431V41.6666C67.7192 41.679 67.825 41.679 67.8747 41.679ZM67.6757 42.4318C67.6757 42.6495 67.6819 42.861 67.7192 42.9419C67.769 43.0414 68.024 43.0601 68.1671 43.0601C68.5217 43.0601 68.7021 42.8299 68.7021 42.5064C68.7021 42.1207 68.4097 41.8843 67.9494 41.8843C67.8747 41.8843 67.7441 41.8843 67.6757 41.8905V42.4318ZM70.842 41.9465C70.7238 41.9465 70.6616 41.9528 70.5808 41.9652V42.4318C70.5808 42.6495 70.587 42.8174 70.6056 42.9792C70.73 43.0041 70.9478 43.0103 71.1406 43.0103C71.3024 43.0103 71.5699 42.9978 71.6632 42.9356C71.7627 42.8734 71.856 42.7428 71.9742 42.5002H72.1173C72.0613 42.749 72.024 42.9978 72.0053 43.2467C71.7814 43.228 71.2899 43.2218 70.9104 43.2218H70.4003C70.2635 43.2218 69.8965 43.228 69.7036 43.2467V43.116C69.9027 43.0663 70.0271 43.0476 70.0707 42.9667C70.1329 42.8485 70.1329 42.6433 70.1329 42.4255V41.3431C70.1329 41.1254 70.1204 40.9201 70.0707 40.8019C70.0333 40.7148 69.9027 40.7024 69.7036 40.6526V40.522C69.8965 40.5406 70.2511 40.5469 70.3879 40.5469H70.5745C70.898 40.5469 71.5014 40.522 72.0115 40.522C71.9618 40.7335 71.912 40.9948 71.8933 41.1565H71.7627C71.7378 41.0196 71.7067 40.9014 71.6445 40.8268C71.5761 40.7397 71.3459 40.7397 71.1842 40.7397C71.0224 40.7397 70.9167 40.7397 70.6243 40.7646C70.5932 40.8641 70.587 41.1254 70.587 41.3431V41.7039C70.6616 41.7164 70.73 41.7226 70.8482 41.7226H70.9975C71.1531 41.7226 71.3459 41.7226 71.4206 41.6355C71.4828 41.5671 71.5139 41.4986 71.5574 41.3867H71.688C71.6632 41.5795 71.6632 41.6977 71.6632 41.8283C71.6632 41.9714 71.6632 42.0772 71.688 42.27H71.5387C71.5014 42.158 71.4765 42.0772 71.4019 42.0025C71.3335 41.9341 71.1406 41.9341 70.9851 41.9341H70.842V41.9465ZM73.0317 41.3493C73.0317 41.1316 73.0193 40.9201 72.9695 40.8019C72.9322 40.7148 72.8016 40.7086 72.6025 40.6588V40.5282C72.7953 40.5469 73.0193 40.5531 73.2619 40.5531C73.5045 40.5531 73.7285 40.5469 73.9213 40.5282V40.6588C73.7222 40.7086 73.5916 40.7086 73.5543 40.8019C73.4983 40.9201 73.4921 41.1378 73.4921 41.3493V41.7039C73.5978 41.7226 73.8031 41.7288 74.0333 41.7288H74.4998C74.7238 41.7288 74.9291 41.7226 75.041 41.7039V41.3493C75.041 41.1316 75.0286 40.9201 74.9788 40.8019C74.9415 40.7148 74.8109 40.7086 74.6118 40.6588V40.5282C74.8046 40.5469 75.0286 40.5531 75.2712 40.5531C75.5138 40.5531 75.7378 40.5469 75.9306 40.5282V40.6588C75.7315 40.7086 75.6009 40.7086 75.5636 40.8019C75.5076 40.9201 75.5014 41.1378 75.5014 41.3493V42.4318C75.5014 42.6495 75.5138 42.8548 75.5636 42.973C75.6009 43.0601 75.7315 43.0849 75.9306 43.1223V43.2529C75.7378 43.2342 75.5138 43.228 75.2712 43.228C75.0286 43.228 74.8046 43.2342 74.6118 43.2529V43.1223C74.8109 43.0849 74.9415 43.0538 74.9788 42.973C75.0348 42.8548 75.041 42.6495 75.041 42.4318V41.9652C74.9353 41.9465 74.73 41.9465 74.4998 41.9465H74.0271C73.7969 41.9465 73.5978 41.9528 73.4858 41.9652V42.4318C73.4858 42.6495 73.4983 42.8548 73.5481 42.973C73.5854 43.0601 73.716 43.0849 73.9151 43.1223V43.2529C73.7222 43.2342 73.4983 43.228 73.2557 43.228C73.0131 43.228 72.7891 43.2342 72.5963 43.2529V43.1223C72.7953 43.0849 72.926 43.0538 72.9633 42.973C73.0193 42.8548 73.0255 42.6495 73.0255 42.4318V41.3493H73.0317ZM76.7766 41.3493C76.7766 41.1316 76.7642 40.9201 76.7144 40.8019C76.6771 40.7148 76.5465 40.7086 76.3474 40.6588V40.5282C76.5402 40.5469 76.7642 40.5531 77.0068 40.5531C77.2494 40.5531 77.4733 40.5469 77.6662 40.5282V40.6588C77.4671 40.7086 77.3365 40.7086 77.2992 40.8019C77.2432 40.9201 77.237 41.1378 77.237 41.3493V41.7039C77.3427 41.7226 77.548 41.7288 77.7782 41.7288H78.2447C78.4749 41.7288 78.674 41.7226 78.7859 41.7039V41.3493C78.7859 41.1316 78.7735 40.9201 78.7237 40.8019C78.6864 40.7148 78.5558 40.7086 78.3567 40.6588V40.5282C78.5495 40.5469 78.7735 40.5531 79.0161 40.5531C79.2587 40.5531 79.4827 40.5469 79.6755 40.5282V40.6588C79.4764 40.7086 79.3458 40.7086 79.3085 40.8019C79.2525 40.9201 79.2463 41.1378 79.2463 41.3493V42.4318C79.2463 42.6495 79.2587 42.8548 79.3085 42.973C79.3458 43.0601 79.4764 43.0849 79.6755 43.1223V43.2529C79.4827 43.2342 79.2587 43.228 79.0161 43.228C78.7735 43.228 78.5495 43.2342 78.3567 43.2529V43.1223C78.5558 43.0849 78.6864 43.0538 78.7237 42.973C78.7797 42.8548 78.7859 42.6495 78.7859 42.4318V41.9652C78.6802 41.9465 78.4749 41.9465 78.2447 41.9465H77.7782C77.5542 41.9465 77.3489 41.9528 77.237 41.9652V42.4318C77.237 42.6495 77.2494 42.8548 77.2992 42.973C77.3365 43.0601 77.4671 43.0849 77.6662 43.1223V43.2529C77.4733 43.2342 77.2494 43.228 77.0068 43.228C76.7642 43.228 76.5402 43.2342 76.3474 43.2529V43.1223C76.5465 43.0849 76.6771 43.0538 76.7144 42.973C76.7704 42.8548 76.7766 42.6495 76.7766 42.4318V41.3493ZM80.9756 41.6915C81.0378 41.679 81.1996 41.6666 81.2867 41.6666C81.8901 41.6666 82.4624 41.8781 82.4624 42.494C82.4624 42.9481 82.0767 43.2591 81.4795 43.2591C81.2556 43.2591 81.013 43.228 80.7455 43.228C80.5029 43.228 80.2789 43.2342 80.0861 43.2529V43.1223C80.2851 43.0725 80.4158 43.0538 80.4531 42.973C80.5091 42.8548 80.5153 42.6495 80.5153 42.4318V41.3493C80.5153 41.1316 80.5029 40.9263 80.4531 40.8081C80.4158 40.721 80.2851 40.7086 80.0861 40.6588V40.5282C80.2789 40.5469 80.5029 40.5531 80.7455 40.5531C80.9881 40.5531 81.2618 40.5469 81.4609 40.5282V40.6588C81.2618 40.7024 81.0752 40.721 81.0378 40.8081C80.9819 40.9263 80.9756 41.1316 80.9756 41.3493V41.6915ZM80.9756 42.4007C80.9756 42.6246 80.9756 42.8299 81.0254 42.9232C81.0752 43.0165 81.2742 43.0414 81.4111 43.0414C81.6599 43.0414 81.9585 42.9232 81.9585 42.494C81.9585 42.1021 81.6972 41.8843 81.2867 41.8843C81.1809 41.8843 81.0627 41.8906 80.9756 41.903V42.4007ZM82.9849 41.3493C82.9849 41.1316 82.9725 40.9201 82.9227 40.8019C82.8854 40.7148 82.7548 40.7086 82.5557 40.6588V40.5282C82.7486 40.5469 82.9725 40.5531 83.2151 40.5531C83.4577 40.5531 83.6817 40.5469 83.8745 40.5282V40.6588C83.6754 40.7086 83.5448 40.7086 83.5075 40.8019C83.4515 40.9201 83.4453 41.1378 83.4453 41.3493V42.4318C83.4453 42.6495 83.4577 42.8548 83.5075 42.973C83.5448 43.0601 83.6754 43.0849 83.8745 43.1223V43.2529C83.6817 43.2342 83.4577 43.228 83.2151 43.228C82.9725 43.228 82.7486 43.2342 82.5557 43.2529V43.1223C82.7548 43.0849 82.8854 43.0538 82.9227 42.973C82.9787 42.8548 82.9849 42.6495 82.9849 42.4318V41.3493ZM84.733 41.3493C84.733 41.1316 84.7205 40.9201 84.6645 40.8019C84.6272 40.7148 84.4966 40.7086 84.2975 40.6588V40.5282C84.4904 40.5469 84.7143 40.5531 84.9569 40.5531C85.1995 40.5531 85.4235 40.5469 85.6163 40.5282V40.6588C85.4173 40.7086 85.2866 40.7086 85.2493 40.8019C85.1933 40.9201 85.1871 41.1378 85.1871 41.3493V42.4691L86.7858 40.9388C86.7858 40.889 86.7609 40.833 86.7298 40.7833C86.6863 40.721 86.5557 40.7024 86.3566 40.6526V40.522C86.5494 40.5406 86.7734 40.5469 87.016 40.5469C87.2586 40.5469 87.4825 40.5406 87.6754 40.522V40.6526C87.4763 40.7024 87.3457 40.7024 87.3084 40.7957C87.2524 40.9139 87.2462 41.1316 87.2462 41.3431V42.4255C87.2462 42.6433 87.2586 42.8485 87.3084 42.9667C87.3457 43.0538 87.4763 43.0787 87.6754 43.116V43.2467C87.4825 43.228 87.2586 43.2218 87.016 43.2218C86.7734 43.2218 86.5494 43.228 86.3566 43.2467V43.116C86.5557 43.0787 86.6863 43.0476 86.7236 42.9667C86.7796 42.8485 86.7858 42.6433 86.7858 42.4255V41.2498L85.1871 42.7801C85.1871 42.8299 85.1933 42.8921 85.2431 42.9792C85.2866 43.0538 85.4235 43.0849 85.6225 43.1223V43.2529C85.4297 43.2342 85.2057 43.228 84.9631 43.228C84.7205 43.228 84.4966 43.2342 84.3037 43.2529V43.1223C84.5028 43.0849 84.6334 43.0538 84.6708 42.973C84.7267 42.8548 84.7392 42.6495 84.7392 42.4318V41.3493H84.733ZM86.9165 39.5578C86.7112 39.8066 86.3441 40.1425 85.834 40.1425C85.4981 40.1425 85.1187 39.9559 85.1187 39.7631C85.1187 39.6573 85.2617 39.4956 85.3861 39.4582C85.4919 39.62 85.7407 39.7942 86.0953 39.7942C86.3566 39.7942 86.6365 39.6449 86.8169 39.4582L86.9165 39.5578ZM90.257 41.6728C90.2694 41.4551 90.2757 41.2871 90.2757 41.1689C90.2757 41.057 90.257 40.8952 90.2135 40.8206C90.1575 40.7397 89.9833 40.7024 89.7842 40.6588V40.5282C89.9771 40.5531 90.1699 40.5531 90.3565 40.5531C90.5058 40.5531 90.6738 40.5344 90.7609 40.5282C90.8977 40.8952 90.9599 41.0383 91.103 41.3431L91.4887 42.1829C91.5571 42.3322 91.6007 42.438 91.6442 42.5188H91.6691C91.7127 42.438 91.7562 42.3447 91.8122 42.2203L92.1481 41.4924C92.2912 41.1814 92.4156 40.8952 92.5338 40.5344C92.6458 40.5469 92.8386 40.5531 92.9568 40.5531C93.1434 40.5531 93.3425 40.5469 93.4794 40.5282V40.6588C93.2803 40.7024 93.1123 40.7397 93.0563 40.8206C93.0066 40.8952 93.0066 41.113 93.0066 41.1689C93.0066 41.2312 93.019 41.4551 93.0252 41.6168L93.0626 42.3198C93.075 42.5811 93.1061 42.8485 93.1621 42.9667C93.1994 43.0538 93.3301 43.0663 93.5291 43.116V43.2467C93.3363 43.228 93.1123 43.2218 92.8697 43.2218C92.6271 43.2218 92.3534 43.228 92.1543 43.2467V43.116C92.3534 43.0725 92.5338 43.0538 92.5773 42.9667C92.6085 42.8983 92.6209 42.7926 92.6209 42.6992C92.6209 42.6184 92.6147 42.4877 92.6084 42.3198L92.5836 41.6168C92.5773 41.4675 92.5587 41.2809 92.5587 41.1316H92.5338C92.4529 41.3307 92.3907 41.4862 92.3347 41.6044L91.9055 42.5313C91.7189 42.9543 91.638 43.1534 91.5945 43.2529H91.4638C91.3892 43.0663 91.2648 42.7863 91.1715 42.5935L90.6987 41.5733C90.5991 41.3556 90.5805 41.2871 90.5245 41.1378H90.4996C90.4872 41.2934 90.4685 41.4924 90.4623 41.679L90.4436 42.2762C90.4374 42.382 90.4312 42.5499 90.4312 42.6681C90.4312 42.7801 90.4312 42.8983 90.4623 42.9792C90.4996 43.0663 90.68 43.0849 90.8791 43.1285V43.2591C90.6862 43.2342 90.4996 43.2342 90.257 43.2342C90.0144 43.2342 89.8713 43.2342 89.6785 43.2591V43.1285C89.8775 43.0787 90.0579 43.0601 90.1015 42.9792C90.1637 42.861 90.2072 42.5686 90.2135 42.2762L90.257 41.6728ZM95.047 41.4116L95.5073 42.2265H95.5322L95.9988 41.2436C96.0983 41.0196 96.1481 40.9201 96.1481 40.8268C96.1481 40.7335 95.9428 40.6837 95.7624 40.6526V40.522C95.9614 40.5406 96.1294 40.5469 96.3409 40.5469C96.5151 40.5469 96.6457 40.5406 96.795 40.522V40.6526C96.7141 40.6775 96.6208 40.7024 96.5462 40.7522C96.4466 40.8081 96.3658 41.0134 96.1978 41.368L95.6006 42.5935C95.2958 43.2218 95.1652 43.3027 94.8852 43.3027C94.7608 43.3027 94.6426 43.2716 94.5182 43.2218C94.5182 42.9294 94.4996 42.6868 94.4871 42.5562H94.624C94.68 42.693 94.7359 42.8174 94.7919 42.8921C94.8541 42.9854 94.9163 43.0103 94.9848 43.0103C95.103 43.0103 95.1963 42.9232 95.2896 42.7179L94.5182 41.424C94.3254 41.1005 94.1636 40.8081 94.0454 40.7522C93.9583 40.7148 93.8277 40.6713 93.7655 40.6526V40.522C93.9335 40.5406 94.1823 40.5469 94.4062 40.5469C94.5991 40.5469 94.8541 40.5406 95.0408 40.522V40.6526C94.9474 40.6775 94.7733 40.721 94.7733 40.8268C94.7546 40.9077 94.8479 41.057 95.047 41.4116ZM97.1061 43.172C97.1683 42.7366 97.1683 42.6059 97.1745 42.4131H97.3176C97.3362 42.5437 97.3673 42.7241 97.4482 42.8548C97.5104 42.9605 97.7468 43.0912 98.0143 43.0912C98.456 43.0912 98.6737 42.9108 98.6737 42.494C98.6737 42.1083 98.3751 41.8843 97.9459 41.8843C97.8588 41.8843 97.7095 41.8906 97.5913 41.903C97.6037 41.8408 97.6099 41.7413 97.6099 41.6666C97.6721 41.6728 97.8028 41.6728 97.8712 41.6728C98.4311 41.6728 98.5555 41.3431 98.5555 41.1565C98.5555 40.777 98.3129 40.7024 98.0765 40.7024C97.9334 40.7024 97.6721 40.7646 97.5975 40.8455C97.498 40.9512 97.442 41.1005 97.3798 41.2498H97.2367C97.2553 41.0259 97.2616 40.8579 97.2616 40.6153C97.4917 40.5966 97.7343 40.4909 98.1138 40.4909C98.6115 40.4909 99.0345 40.6962 99.0345 41.1627C99.0345 41.5609 98.5617 41.7164 98.3564 41.7599V41.7786C98.6239 41.8035 99.1776 41.9092 99.1776 42.5437C99.1776 43.1036 98.6115 43.3213 98.0143 43.3213C97.6597 43.3027 97.4047 43.1969 97.1061 43.172ZM100.814 41.9465C100.695 41.9465 100.633 41.9528 100.552 41.9652V42.4318C100.552 42.6495 100.559 42.8174 100.577 42.9792C100.702 43.0041 100.919 43.0103 101.112 43.0103C101.274 43.0103 101.541 42.9978 101.635 42.9356C101.734 42.8734 101.828 42.7428 101.94 42.5002H102.083C102.027 42.749 101.989 42.9978 101.971 43.2467C101.747 43.228 101.255 43.2218 100.876 43.2218H100.366C100.229 43.2218 99.8618 43.228 99.669 43.2467V43.116C99.8681 43.0663 99.9925 43.0476 100.036 42.9667C100.098 42.8485 100.098 42.6433 100.098 42.4255V41.3431C100.098 41.1254 100.086 40.9201 100.036 40.8019C99.9987 40.7148 99.8681 40.7024 99.669 40.6526V40.522C99.8618 40.5406 100.216 40.5469 100.353 40.5469H100.54C100.863 40.5469 101.467 40.522 101.977 40.522C101.927 40.7335 101.877 40.9948 101.859 41.1565H101.728C101.703 41.0196 101.672 40.9014 101.61 40.8268C101.541 40.7397 101.311 40.7397 101.15 40.7397C100.988 40.7397 100.882 40.7397 100.59 40.7646C100.559 40.8641 100.552 41.1254 100.552 41.3431V41.7039C100.627 41.7164 100.695 41.7226 100.814 41.7226H100.963C101.118 41.7226 101.311 41.7226 101.386 41.6355C101.448 41.5671 101.479 41.4986 101.523 41.3867H101.653C101.629 41.5795 101.629 41.6977 101.629 41.8283C101.629 41.9714 101.629 42.0772 101.653 42.27H101.523C101.485 42.158 101.461 42.0772 101.386 42.0025C101.317 41.9341 101.118 41.9341 100.969 41.9341H100.814V41.9465ZM103.003 41.3493C103.003 41.1316 102.991 40.9201 102.935 40.8019C102.898 40.7148 102.767 40.7086 102.568 40.6588V40.5282C102.761 40.5469 102.985 40.5531 103.227 40.5531C103.47 40.5531 103.694 40.5469 103.887 40.5282V40.6588C103.688 40.7086 103.557 40.7086 103.52 40.8019C103.464 40.9201 103.457 41.1378 103.457 41.3493V42.4691L105.056 40.9388C105.056 40.889 105.031 40.833 104.994 40.7833C104.95 40.721 104.82 40.7024 104.621 40.6526V40.522C104.814 40.5406 105.038 40.5469 105.28 40.5469C105.523 40.5469 105.747 40.5406 105.94 40.522V40.6526C105.74 40.7024 105.61 40.7024 105.573 40.7957C105.517 40.9139 105.504 41.1316 105.504 41.3431V42.4255C105.504 42.6433 105.517 42.8485 105.573 42.9667C105.61 43.0538 105.74 43.0787 105.94 43.116V43.2467C105.747 43.228 105.523 43.2218 105.28 43.2218C105.038 43.2218 104.814 43.228 104.621 43.2467V43.116C104.82 43.0787 104.95 43.0476 104.988 42.9667C105.044 42.8485 105.05 42.6433 105.05 42.4255V41.2498L103.451 42.7801C103.451 42.8299 103.457 42.8921 103.507 42.9792C103.551 43.0538 103.688 43.0849 103.887 43.1223V43.2529C103.694 43.2342 103.47 43.228 103.227 43.228C102.985 43.228 102.761 43.2342 102.568 43.2529V43.1223C102.767 43.0849 102.898 43.0538 102.935 42.973C102.991 42.8548 103.003 42.6495 103.003 42.4318V41.3493ZM105.187 39.5578C104.982 39.8066 104.615 40.1425 104.104 40.1425C103.768 40.1425 103.389 39.9559 103.389 39.7631C103.389 39.6573 103.532 39.4956 103.657 39.4582C103.762 39.62 104.011 39.7942 104.366 39.7942C104.627 39.7942 104.907 39.6449 105.087 39.4582L105.187 39.5578ZM39.5081 47.2715C39.5081 47.0538 39.4956 46.8423 39.4397 46.7241C39.4023 46.637 39.2717 46.6308 39.0726 46.581V46.4504C39.2655 46.469 39.4894 46.4752 39.732 46.4752C39.9746 46.4752 40.1986 46.469 40.3914 46.4504V46.581C40.1924 46.6308 40.0617 46.637 40.0244 46.7241C39.9684 46.8423 39.9622 47.06 39.9622 47.2715V48.3975L41.5609 46.8672C41.5609 46.8174 41.5361 46.7614 41.5049 46.7116C41.4614 46.6494 41.3308 46.6308 41.1317 46.581V46.4504C41.3245 46.469 41.5485 46.4752 41.7911 46.4752C42.0337 46.4752 42.2577 46.469 42.4505 46.4504V46.581C42.2514 46.6308 42.1208 46.637 42.0835 46.7241C42.0275 46.8423 42.0213 47.06 42.0213 47.2715V48.3539C42.0213 48.5716 42.0337 48.7769 42.0835 48.8951C42.1208 48.9822 42.2514 49.0071 42.4505 49.0444V49.1751C42.2577 49.1564 42.0337 49.1502 41.7911 49.1502C41.5485 49.1502 41.3245 49.1564 41.1317 49.1751V49.0444C41.3308 49.0071 41.4614 48.9822 41.4987 48.8951C41.5547 48.7769 41.5609 48.5716 41.5609 48.3539V47.1782L39.9622 48.7085C39.9622 48.7583 39.9684 48.8205 40.0182 48.9076C40.0617 48.9822 40.1986 49.0133 40.3977 49.0506V49.1813C40.2048 49.1626 39.9809 49.1564 39.7383 49.1564C39.4956 49.1564 39.2717 49.1626 39.0789 49.1813V49.0506C39.2779 49.0133 39.4086 48.9884 39.4459 48.9013C39.5019 48.7831 39.5143 48.5779 39.5143 48.3601V47.2715H39.5081ZM42.9295 49.088C42.9917 48.6525 42.9917 48.5219 42.9979 48.329H43.141C43.1597 48.4597 43.1908 48.6401 43.2716 48.7707C43.3338 48.8765 43.5702 49.0071 43.8377 49.0071C44.2794 49.0071 44.4971 48.8205 44.4971 48.4099C44.4971 48.0242 44.1985 47.8003 43.7693 47.8003C43.6822 47.8003 43.5329 47.8065 43.4147 47.8189C43.4272 47.7567 43.4334 47.6572 43.4396 47.5825C43.4956 47.5888 43.6324 47.5888 43.7009 47.5888C44.2607 47.5888 44.3852 47.2591 44.3852 47.0724C44.3852 46.693 44.1425 46.6183 43.9062 46.6183C43.7631 46.6183 43.5018 46.6805 43.4272 46.7552C43.3276 46.8609 43.2716 47.0102 43.2094 47.1595H43.0726C43.0912 46.9294 43.0975 46.7676 43.0975 46.5188C43.3276 46.5001 43.5702 46.3944 43.9497 46.3944C44.4474 46.3944 44.8704 46.5997 44.8704 47.0662C44.8704 47.4643 44.3976 47.6199 44.1923 47.6634V47.6821C44.4598 47.707 45.0135 47.8127 45.0135 48.4472C45.0135 49.0071 44.4474 49.2248 43.844 49.2248C43.4769 49.2248 43.2281 49.1191 42.9295 49.088ZM47.0663 46.3944C48.0367 46.3944 48.4846 47.1098 48.4846 47.8127C48.4846 48.6214 47.7133 49.2248 46.9543 49.2248C45.9839 49.2248 45.536 48.4286 45.536 47.7256C45.5422 46.9169 46.3136 46.3944 47.0663 46.3944ZM46.0461 47.6759C46.0461 48.3228 46.3136 49.0009 47.0103 49.0009C47.6573 49.0009 47.9745 48.5219 47.9745 47.8749C47.9745 47.228 47.707 46.6308 47.0103 46.6308C46.3696 46.6245 46.0461 47.0289 46.0461 47.6759ZM49.8594 47.6323C49.9278 47.6199 50.1145 47.6136 50.2078 47.6136C50.8112 47.6136 51.3835 47.8563 51.3835 48.4161C51.3835 48.8702 50.9978 49.1813 50.4006 49.1813C50.1767 49.1813 49.8967 49.1502 49.6355 49.1502C49.3929 49.1502 49.1689 49.1564 48.9761 49.1751V49.0444C49.1751 48.9947 49.3058 48.9822 49.3431 48.8951C49.3991 48.7769 49.4053 48.5716 49.4053 48.3539V47.2715C49.4053 47.0538 49.3929 46.8485 49.3431 46.7303C49.3058 46.6432 49.1751 46.6308 48.9761 46.581V46.4504C49.1689 46.469 49.3929 46.4752 49.6355 46.4752H49.8532C50.1767 46.4752 50.6743 46.4504 51.1782 46.4504C51.1471 46.6619 51.1222 46.948 51.116 47.1098H50.9854C50.9356 46.9542 50.8858 46.8361 50.8236 46.7614C50.7552 46.6743 50.525 46.6743 50.4193 46.6743C50.3135 46.6743 50.1456 46.6743 49.903 46.693C49.8719 46.7925 49.8656 47.06 49.8656 47.2777V47.6323H49.8594ZM49.8594 48.3228C49.8594 48.553 49.8594 48.752 49.9092 48.8454C49.959 48.9387 50.1891 48.9635 50.3322 48.9635C50.581 48.9635 50.8796 48.8454 50.8796 48.4099C50.8796 48.0429 50.6184 47.8189 50.2078 47.8189C50.102 47.8189 49.9465 47.8252 49.8594 47.8438V48.3228ZM52.7521 48.3539C52.7521 48.5716 52.7645 48.7769 52.8143 48.8951C52.8516 48.9822 53.0382 49.0009 53.2871 49.0444V49.1751C53.0382 49.1564 52.7645 49.1502 52.5219 49.1502C52.2793 49.1502 52.0553 49.1564 51.8625 49.1751V49.0444C52.0616 48.9947 52.1922 48.9822 52.2295 48.8951C52.2855 48.7769 52.2917 48.5716 52.2917 48.3539V47.2715C52.2917 47.0538 52.2793 46.8485 52.2295 46.7303C52.1922 46.6432 52.0616 46.6308 51.8625 46.581V46.4504C52.0553 46.469 52.2544 46.4752 52.4473 46.4752C52.6339 46.4752 53.0009 46.4317 53.144 46.4317C53.8469 46.4317 54.2202 46.7614 54.2202 47.2777C54.2202 47.7567 53.822 48.1113 53.2248 48.1113C53.1191 48.1113 52.92 48.0802 52.8578 48.0491V47.9185C52.9138 47.9309 53.0444 47.9371 53.1502 47.9371C53.6479 47.9371 53.7101 47.5141 53.7101 47.3026C53.7101 46.7179 53.3555 46.637 53.144 46.637C53.0444 46.637 52.8889 46.6432 52.7645 46.6743C52.7458 46.8112 52.7458 47.0476 52.7458 47.2591V48.3539H52.7521ZM56.3414 48.3477C56.2046 48.3353 56.0864 48.3353 55.9495 48.3353H55.7878C55.6447 48.3353 55.483 48.3353 55.3523 48.3477L55.2404 48.6338C55.2093 48.7085 55.1657 48.8205 55.1657 48.8827C55.1657 48.9822 55.3648 49.0133 55.539 49.0569V49.1751C55.4021 49.1564 55.2093 49.144 54.9231 49.144C54.6992 49.144 54.5748 49.1626 54.4628 49.1751V49.0569C54.5685 49.0382 54.6681 49.0133 54.7489 48.9698C54.8547 48.9076 54.9231 48.7334 54.9853 48.5779L55.8749 46.4006H56.0055L56.9573 48.609C57.0195 48.7583 57.0631 48.8702 57.1253 48.9262C57.1875 48.9884 57.3057 49.032 57.4363 49.0569V49.1751C57.3492 49.1626 57.0382 49.1502 56.8827 49.1502C56.5405 49.1502 56.3228 49.1626 56.1984 49.1751V49.0569C56.3539 49.0258 56.5592 48.9822 56.5592 48.8827C56.5592 48.8205 56.5032 48.7085 56.4721 48.6401L56.3414 48.3477ZM55.9495 48.1175C56.0926 48.1175 56.1735 48.1175 56.2481 48.1051L55.85 47.1409H55.8251L55.4394 48.1051C55.5203 48.1175 55.6447 48.1175 55.7878 48.1175H55.9495ZM57.7473 49.088C57.8095 48.6525 57.8095 48.5219 57.8158 48.329H57.9526C57.9713 48.4597 58.0024 48.6401 58.0833 48.7707C58.1455 48.8765 58.3819 49.0071 58.6493 49.0071C59.091 49.0071 59.3087 48.8205 59.3087 48.4099C59.3087 48.0242 59.0101 47.8003 58.5809 47.8003C58.4938 47.8003 58.3445 47.8065 58.2263 47.8189C58.2388 47.7567 58.245 47.6572 58.2512 47.5825C58.3072 47.5888 58.4441 47.5888 58.5125 47.5888C59.0724 47.5888 59.1968 47.2591 59.1968 47.0724C59.1968 46.693 58.9542 46.6183 58.7178 46.6183C58.5747 46.6183 58.3134 46.6805 58.2388 46.7552C58.1392 46.8609 58.0833 47.0102 58.021 47.1595H57.878C57.8966 46.9294 57.9029 46.7676 57.9029 46.5188C58.133 46.5001 58.3756 46.3944 58.7551 46.3944C59.2528 46.3944 59.6758 46.5997 59.6758 47.0662C59.6758 47.4643 59.203 47.6199 58.9977 47.6634V47.6821C59.2652 47.707 59.8188 47.8127 59.8188 48.4472C59.8188 49.0071 59.2528 49.2248 58.6493 49.2248C58.301 49.2248 58.0459 49.1191 57.7473 49.088ZM60.7395 47.2715C60.7395 47.0538 60.7271 46.8423 60.6773 46.7241C60.64 46.637 60.5093 46.6308 60.3103 46.581V46.4504C60.5031 46.469 60.7271 46.4752 60.9697 46.4752C61.2123 46.4752 61.4362 46.469 61.6291 46.4504V46.581C61.43 46.6308 61.2994 46.637 61.2621 46.7241C61.2061 46.8423 61.1999 47.06 61.1999 47.2715V48.3975L62.7986 46.8672C62.7986 46.8174 62.7799 46.7614 62.7364 46.7116C62.6928 46.6494 62.5622 46.6308 62.3631 46.581V46.4504C62.556 46.469 62.7799 46.4752 63.0225 46.4752C63.2651 46.4752 63.4891 46.469 63.6819 46.4504V46.581C63.4829 46.6308 63.3522 46.637 63.3149 46.7241C63.2589 46.8423 63.2465 47.06 63.2465 47.2715V48.3539C63.2465 48.5716 63.2589 48.7769 63.3149 48.8951C63.3522 48.9822 63.4829 49.0071 63.6819 49.0444V49.1751C63.4891 49.1564 63.2651 49.1502 63.0225 49.1502C62.7799 49.1502 62.556 49.1564 62.3631 49.1751V49.0444C62.5622 49.0071 62.6928 48.9822 62.7302 48.8951C62.7861 48.7769 62.7924 48.5716 62.7924 48.3539V47.1782L61.1936 48.7085C61.1936 48.7583 61.1999 48.8205 61.2496 48.9076C61.2932 48.9822 61.43 49.0133 61.6291 49.0506V49.1813C61.4362 49.1626 61.2123 49.1564 60.9697 49.1564C60.7271 49.1564 60.5031 49.1626 60.3103 49.1813V49.0506C60.5093 49.0133 60.64 48.9884 60.6773 48.9013C60.7333 48.7831 60.7395 48.5779 60.7395 48.3601V47.2715ZM65.0256 47.2715C65.0256 47.0538 65.0194 46.8983 65.0007 46.6992C64.9012 46.6868 64.7519 46.6868 64.6586 46.6868C64.5653 46.6868 64.3911 46.693 64.2791 46.7738C64.192 46.8361 64.1547 46.948 64.0863 47.1409H63.9494C63.9805 46.9231 64.0054 46.6619 64.0116 46.4379C64.2045 46.4566 64.5093 46.469 64.8328 46.469H65.6726C65.9961 46.469 66.2511 46.4566 66.5559 46.4379C66.5124 46.7116 66.4875 46.8609 66.4564 47.1409H66.3133C66.2947 47.0102 66.2511 46.8236 66.1765 46.7614C66.108 46.6992 65.9961 46.6868 65.7908 46.6868C65.7286 46.6868 65.5668 46.6868 65.5046 46.6992C65.4797 46.9045 65.4735 47.0538 65.4735 47.2715V48.3539C65.4735 48.5716 65.486 48.7769 65.5357 48.8951C65.573 48.9822 65.7597 49.0009 65.9587 49.0444V49.1751C65.7659 49.1564 65.4922 49.1502 65.2433 49.1502C65.0007 49.1502 64.727 49.1564 64.528 49.1751V49.0444C64.727 49.0009 64.9136 48.9822 64.951 48.8951C65.007 48.7769 65.0132 48.5716 65.0132 48.3539V47.2715H65.0256ZM67.9743 47.8625C67.8561 47.8625 67.7939 47.8687 67.713 47.8811V48.3539C67.713 48.5716 67.7192 48.7334 67.7379 48.9013C67.8623 48.9262 68.0738 48.9324 68.2729 48.9324C68.4346 48.9324 68.7021 48.92 68.7954 48.8578C68.8949 48.7956 68.9882 48.665 69.1002 48.4286H69.2433C69.1873 48.6774 69.15 48.9262 69.1313 49.1751C68.9074 49.1564 68.4159 49.1502 68.0365 49.1502H67.5201C67.3833 49.1502 67.0163 49.1564 66.8234 49.1751V49.0444C67.0225 48.9947 67.1469 48.9822 67.1904 48.8951C67.2464 48.7769 67.2526 48.5716 67.2526 48.3539V47.2715C67.2526 47.0538 67.2402 46.8485 67.1904 46.7303C67.1531 46.6432 67.0225 46.6308 66.8234 46.581V46.4504C67.0163 46.469 67.3771 46.4752 67.5077 46.4752H67.6943C68.0178 46.4752 68.6212 46.4504 69.1313 46.4504C69.0815 46.6619 69.0318 46.9231 69.0131 47.0849H68.8825C68.8576 46.948 68.8265 46.8298 68.7643 46.7552C68.6959 46.6681 68.4657 46.6681 68.304 46.6681C68.1422 46.6681 68.0365 46.6681 67.7441 46.6868C67.713 46.7863 67.7068 47.0476 67.7068 47.2653V47.6261C67.7814 47.6385 67.8561 47.6447 67.968 47.6447H68.1173C68.2729 47.6447 68.4657 47.6447 68.5403 47.5577C68.6026 47.4892 68.6337 47.4208 68.6772 47.3088H68.8078C68.7892 47.5017 68.783 47.6199 68.783 47.7505C68.783 47.8936 68.783 47.9993 68.8016 48.1922H68.671C68.6337 48.0802 68.6088 47.9993 68.5341 47.9247C68.4657 47.8563 68.2729 47.8563 68.1173 47.8563H67.9743V47.8625ZM71.6632 47.539C71.6632 47.2777 71.6632 46.8298 71.6321 46.6992C71.5387 46.693 71.4828 46.6868 71.3583 46.6868H71.2588C71.122 46.6868 70.9851 46.693 70.9042 46.749C70.8358 46.8049 70.8109 46.9542 70.7674 47.2466C70.7425 47.4395 70.7114 47.6261 70.6678 47.8936C70.6119 48.2357 70.5559 48.4908 70.4377 48.7707C70.307 49.0693 70.0769 49.2248 69.8467 49.2248C69.7036 49.2248 69.5108 49.0506 69.5108 48.8889C69.5108 48.7272 69.6974 48.5965 69.828 48.5965C69.8902 48.7334 69.9711 48.8205 70.0458 48.8205C70.1391 48.8205 70.2262 48.7147 70.2946 48.5219C70.3879 48.2793 70.4626 47.8438 70.5185 47.483C70.5434 47.2902 70.5745 47.0849 70.5745 46.9667C70.5745 46.8298 70.5497 46.749 70.4999 46.6992C70.4315 46.637 70.2697 46.5997 70.1142 46.5686V46.4255C70.307 46.4441 70.5248 46.4566 70.7674 46.4566H71.8996C72.1422 46.4566 72.3599 46.4441 72.5527 46.4255V46.5686C72.3537 46.6183 72.223 46.6308 72.1857 46.7179C72.1297 46.8361 72.1235 47.2591 72.1235 47.5266V48.0678C72.1235 48.3415 72.1359 48.7583 72.1857 48.8765C72.223 48.9635 72.3537 48.9822 72.5527 49.0258V49.1626C72.3661 49.144 72.1608 49.1315 71.9182 49.1315C71.6756 49.1315 71.4268 49.1502 71.2339 49.1626V49.0258C71.433 48.976 71.5636 48.9635 71.601 48.8765C71.6569 48.7583 71.6632 48.3353 71.6632 48.0678V47.539ZM73.8653 47.6136C73.9275 47.6012 74.0955 47.5888 74.1888 47.5888C74.7922 47.5888 75.3645 47.8003 75.3645 48.4161C75.3645 48.8702 74.9788 49.1813 74.3816 49.1813C74.1577 49.1813 73.9026 49.1502 73.6351 49.1502C73.3925 49.1502 73.1686 49.1564 72.9757 49.1751V49.0444C73.1748 48.9947 73.3054 48.9822 73.3428 48.8951C73.3988 48.7769 73.405 48.5716 73.405 48.3539V47.2715C73.405 47.0538 73.3925 46.8485 73.3428 46.7303C73.3054 46.6432 73.1748 46.6308 72.9757 46.581V46.4504C73.1686 46.469 73.3925 46.4752 73.6351 46.4752C73.8778 46.4752 74.1515 46.469 74.3443 46.4504V46.581C74.1452 46.6245 73.9586 46.6432 73.9213 46.7303C73.8653 46.8485 73.8591 47.0538 73.8591 47.2715V47.6136H73.8653ZM73.8653 48.3228C73.8653 48.553 73.8653 48.752 73.9151 48.8454C73.9648 48.9387 74.1763 48.9635 74.3132 48.9635C74.562 48.9635 74.8606 48.8454 74.8606 48.4099C74.8606 48.0242 74.5994 47.8003 74.1888 47.8003C74.083 47.8003 73.9524 47.8065 73.8653 47.8189V48.3228ZM76.1981 47.2715C76.1981 47.0538 76.1856 46.8423 76.1359 46.7241C76.0986 46.637 75.9679 46.6308 75.7689 46.581V46.4504C75.9617 46.469 76.1857 46.4752 76.4283 46.4752C76.6709 46.4752 76.8948 46.469 77.0877 46.4504V46.581C76.8886 46.6308 76.758 46.637 76.7206 46.7241C76.6646 46.8423 76.6584 47.06 76.6584 47.2715V47.6261C76.7642 47.6447 76.9695 47.6447 77.1996 47.6447H77.6662C77.8901 47.6447 78.0954 47.6385 78.2074 47.6261V47.2715C78.2074 47.0538 78.195 46.8423 78.1452 46.7241C78.1079 46.637 77.9772 46.6308 77.7782 46.581V46.4504C77.971 46.469 78.195 46.4752 78.4376 46.4752C78.6802 46.4752 78.9041 46.469 79.097 46.4504V46.581C78.8979 46.6308 78.7673 46.637 78.7299 46.7241C78.674 46.8423 78.6615 47.06 78.6615 47.2715V48.3539C78.6615 48.5716 78.674 48.7769 78.7299 48.8951C78.7673 48.9822 78.8979 49.0071 79.097 49.0444V49.1751C78.9041 49.1564 78.6802 49.1502 78.4376 49.1502C78.195 49.1502 77.971 49.1564 77.7782 49.1751V49.0444C77.9772 49.0071 78.1079 48.9822 78.1452 48.8951C78.2012 48.7769 78.2074 48.5716 78.2074 48.3539V47.8874C78.1016 47.8687 77.8964 47.8687 77.6662 47.8687H77.1996C76.9757 47.8687 76.7704 47.8749 76.6584 47.8874V48.3539C76.6584 48.5716 76.6709 48.7769 76.7206 48.8951C76.758 48.9822 76.8886 49.0071 77.0877 49.0444V49.1751C76.8948 49.1564 76.6709 49.1502 76.4283 49.1502C76.1857 49.1502 75.9617 49.1564 75.7689 49.1751V49.0444C75.9679 49.0071 76.0986 48.9822 76.1359 48.8951C76.1919 48.7769 76.1981 48.5716 76.1981 48.3539V47.2715ZM80.3971 47.6136C80.4655 47.6012 80.6211 47.5888 80.7081 47.5888C81.3116 47.5888 81.8839 47.8003 81.8839 48.4161C81.8839 48.8702 81.4982 49.1813 80.901 49.1813C80.677 49.1813 80.4344 49.1502 80.1669 49.1502C79.9243 49.1502 79.7004 49.1564 79.5075 49.1751V49.0444C79.7066 48.9947 79.8372 48.9822 79.8746 48.8951C79.9305 48.7769 79.9368 48.5716 79.9368 48.3539V47.2715C79.9368 47.0538 79.9243 46.8485 79.8746 46.7303C79.8372 46.6432 79.7066 46.6308 79.5075 46.581V46.4504C79.7004 46.469 79.9243 46.4752 80.1669 46.4752C80.4095 46.4752 80.6833 46.469 80.8823 46.4504V46.581C80.6833 46.6245 80.4966 46.6432 80.4593 46.7303C80.4033 46.8485 80.3909 47.0538 80.3909 47.2715V47.6136H80.3971ZM80.3971 48.3228C80.3971 48.553 80.3971 48.752 80.4469 48.8454C80.4966 48.9387 80.6957 48.9635 80.8326 48.9635C81.0814 48.9635 81.38 48.8454 81.38 48.4099C81.38 48.0242 81.1187 47.8003 80.7081 47.8003C80.6024 47.8003 80.478 47.8065 80.3971 47.8189V48.3228ZM82.4064 47.2715C82.4064 47.0538 82.394 46.8423 82.3442 46.7241C82.3069 46.637 82.1762 46.6308 81.9772 46.581V46.4504C82.17 46.469 82.394 46.4752 82.6366 46.4752C82.8792 46.4752 83.1031 46.469 83.296 46.4504V46.581C83.0969 46.6308 82.9663 46.637 82.929 46.7241C82.873 46.8423 82.8667 47.06 82.8667 47.2715V48.3539C82.8667 48.5716 82.8792 48.7769 82.929 48.8951C82.9663 48.9822 83.0969 49.0071 83.296 49.0444V49.1751C83.1031 49.1564 82.8792 49.1502 82.6366 49.1502C82.394 49.1502 82.17 49.1564 81.9772 49.1751V49.0444C82.1762 49.0071 82.3069 48.9822 82.3442 48.8951C82.4002 48.7769 82.4064 48.5716 82.4064 48.3539V47.2715ZM85.8278 48.329C86.1264 48.7209 86.2322 48.8827 86.313 48.9324C86.3939 48.9884 86.5183 49.0071 86.6365 49.0382V49.1688C86.425 49.1502 86.3068 49.144 86.0082 49.144C85.7221 49.144 85.4173 49.1502 85.268 49.1688V49.0382C85.3737 49.0195 85.6225 48.9573 85.6225 48.8765C85.6225 48.8143 85.4857 48.6338 85.3861 48.497L85.0129 47.9931L84.7019 48.4348C84.5588 48.6463 84.4406 48.7894 84.4406 48.8702C84.4406 48.9449 84.6645 49.0009 84.8014 49.032V49.1626C84.621 49.1502 84.4095 49.1377 84.1358 49.1377C83.8683 49.1377 83.7314 49.144 83.5573 49.1626V49.032C83.6568 49.0071 83.8185 48.9698 83.9429 48.9262C84.1544 48.8454 84.3473 48.5405 84.5401 48.2855L84.8823 47.8127L84.2477 46.9667C84.1358 46.8174 84.0674 46.6992 83.9429 46.6556C83.8434 46.6245 83.7128 46.5934 83.607 46.5686V46.4379C83.7563 46.4504 83.9678 46.469 84.2353 46.469C84.509 46.469 84.7579 46.4441 84.9134 46.4379V46.5686C84.8076 46.5872 84.6583 46.6432 84.6583 46.6992C84.6583 46.7676 84.7267 46.8423 84.9134 47.0973L85.156 47.427L85.3986 47.0787C85.5354 46.8796 85.6101 46.7738 85.6101 46.6992C85.6101 46.637 85.467 46.5934 85.3426 46.5686V46.4379C85.4732 46.4441 85.5852 46.4628 85.8589 46.4628C86.1202 46.4628 86.3068 46.4504 86.4375 46.4379V46.5686C86.3317 46.5872 86.17 46.6183 86.0393 46.6619C85.9087 46.7054 85.8092 46.8485 85.6101 47.1409L85.2866 47.6012L85.8278 48.329ZM88.9569 47.2715C88.9569 47.0538 88.9444 46.8423 88.8947 46.7241C88.8573 46.637 88.7267 46.6308 88.5276 46.581V46.4504C88.7205 46.469 88.9444 46.4752 89.187 46.4752C89.4296 46.4752 89.6536 46.469 89.8464 46.4504V46.581C89.6474 46.6308 89.5167 46.637 89.4794 46.7241C89.4234 46.8423 89.4172 47.06 89.4172 47.2715V48.3975L91.0159 46.8672C91.0159 46.8174 90.9911 46.7614 90.9537 46.7116C90.9102 46.6494 90.7795 46.6308 90.5805 46.581V46.4504C90.7733 46.469 90.9973 46.4752 91.2399 46.4752C91.4825 46.4752 91.7064 46.469 91.8993 46.4504V46.581C91.7002 46.6308 91.5696 46.637 91.5323 46.7241C91.4763 46.8423 91.47 47.06 91.47 47.2715V48.3539C91.47 48.5716 91.4825 48.7769 91.5323 48.8951C91.5696 48.9822 91.7002 49.0071 91.8993 49.0444V49.1751C91.7064 49.1564 91.4825 49.1502 91.2399 49.1502C90.9973 49.1502 90.7733 49.1564 90.5805 49.1751V49.0444C90.7795 49.0071 90.9102 48.9822 90.9475 48.8951C91.0035 48.7769 91.0159 48.5716 91.0159 48.3539V47.1782L89.4172 48.7085C89.4172 48.7583 89.4234 48.8205 89.4732 48.9076C89.5167 48.9822 89.6536 49.0133 89.8527 49.0506V49.1813C89.6598 49.1626 89.4359 49.1564 89.1933 49.1564C88.9506 49.1564 88.7267 49.1626 88.5339 49.1813V49.0506C88.7329 49.0133 88.8636 48.9884 88.9009 48.9013C88.9569 48.7831 88.9631 48.5779 88.9631 48.3601V47.2715H88.9569ZM93.9335 49.2248C93.0128 49.2248 92.3845 48.6774 92.3845 47.8376C92.3845 46.948 93.0128 46.3944 93.9335 46.3944C94.3067 46.3944 94.5431 46.5063 94.8852 46.5561C94.8417 46.749 94.823 46.9107 94.7981 47.1844H94.6675C94.6053 46.9853 94.5307 46.8174 94.4436 46.749C94.3378 46.6681 94.1512 46.6121 93.9024 46.6121C93.2678 46.6121 92.8946 47.1035 92.8946 47.7567C92.8946 48.4286 93.2305 49.0071 93.9708 49.0071C94.1947 49.0071 94.3938 48.9449 94.5307 48.8391C94.6364 48.7583 94.7484 48.553 94.8168 48.3788H94.9475C94.9163 48.553 94.8852 48.7085 94.8417 49.0506C94.4996 49.1377 94.2321 49.2248 93.9335 49.2248ZM96.2911 48.3539C96.2911 48.5716 96.3036 48.7769 96.3596 48.8951C96.3969 48.9822 96.5275 49.0009 96.7266 49.0444V49.1751C96.5337 49.1564 96.2538 49.1502 96.0672 49.1502C95.8806 49.1502 95.6006 49.1564 95.4078 49.1751V49.0444C95.6068 48.9947 95.7375 48.9822 95.7748 48.8951C95.8308 48.7769 95.837 48.5716 95.837 48.3539V47.2715C95.837 47.0538 95.8246 46.8485 95.7748 46.7303C95.7375 46.6432 95.6068 46.6308 95.4078 46.581V46.4504C95.6006 46.469 95.8806 46.4752 96.0672 46.4752C96.2538 46.4752 96.4778 46.469 96.6706 46.4504V46.581C96.4715 46.6308 96.3969 46.6432 96.3596 46.7303C96.3036 46.8485 96.2911 47.0538 96.2911 47.2715V48.3539ZM96.3533 47.7505L97.0749 47.0724C97.3238 46.8361 97.4046 46.749 97.4046 46.693C97.4046 46.637 97.274 46.6059 97.1123 46.581V46.4504C97.2927 46.469 97.4233 46.4752 97.585 46.4752C97.7903 46.4752 98.0081 46.469 98.1822 46.4504V46.581C97.8339 46.637 97.809 46.6992 97.3922 47.0724L96.8012 47.6012L97.6659 48.5405C97.9832 48.8827 98.0703 48.9449 98.3502 49.0444V49.1751C98.2133 49.1564 98.0454 49.1502 97.9334 49.1502C97.8277 49.1502 97.7344 49.1564 97.5913 49.1751C97.4171 48.9636 97.2989 48.8267 97.1931 48.6961L96.3533 47.7505ZM99.7063 47.3337L100.167 48.1486H100.192L100.658 47.1658C100.758 46.9418 100.807 46.8423 100.807 46.749C100.807 46.6557 100.602 46.6059 100.422 46.5748V46.4441C100.621 46.4628 100.789 46.469 101 46.469C101.174 46.469 101.305 46.4628 101.454 46.4441V46.5748C101.373 46.5934 101.28 46.6308 101.206 46.6743C101.106 46.7303 101.025 46.9356 100.857 47.2902L100.26 48.5157C99.9552 49.1439 99.8245 49.2248 99.5508 49.2248C99.4264 49.2248 99.3082 49.1937 99.1838 49.144C99.1838 48.8516 99.1651 48.609 99.1527 48.4783H99.2895C99.3455 48.6152 99.4015 48.7396 99.4575 48.8143C99.5197 48.9076 99.5819 48.9324 99.6503 48.9324C99.7685 48.9324 99.8618 48.8454 99.9552 48.6401L99.1838 47.3462C98.9909 47.0227 98.8292 46.7303 98.711 46.6743C98.6239 46.637 98.4933 46.5934 98.4311 46.5748V46.4441C98.599 46.4628 98.8479 46.469 99.0718 46.469C99.2646 46.469 99.5197 46.4628 99.7063 46.4441V46.5748C99.613 46.5934 99.4388 46.6432 99.4388 46.749C99.414 46.8298 99.5073 46.9791 99.7063 47.3337ZM103.314 49.2248C102.394 49.2248 101.765 48.6774 101.765 47.8376C101.765 46.948 102.4 46.3944 103.314 46.3944C103.688 46.3944 103.924 46.5063 104.266 46.5561C104.223 46.749 104.204 46.9107 104.179 47.1844H104.048C103.986 46.9853 103.905 46.8174 103.824 46.749C103.719 46.6681 103.532 46.6121 103.283 46.6121C102.649 46.6121 102.276 47.1035 102.276 47.7567C102.276 48.4286 102.611 49.0071 103.352 49.0071C103.576 49.0071 103.775 48.9449 103.912 48.8391C104.017 48.7583 104.129 48.553 104.198 48.3788H104.328C104.297 48.553 104.266 48.7085 104.223 49.0506C103.887 49.1377 103.619 49.2248 103.314 49.2248ZM106.394 49.2248C105.473 49.2248 104.845 48.6774 104.845 47.8376C104.845 46.948 105.479 46.3944 106.394 46.3944C106.767 46.3944 107.003 46.5063 107.345 46.5561C107.302 46.749 107.283 46.9107 107.258 47.1844H107.128C107.065 46.9853 106.985 46.8174 106.904 46.749C106.798 46.6681 106.611 46.6121 106.363 46.6121C105.728 46.6121 105.355 47.1035 105.355 47.7567C105.355 48.4286 105.691 49.0071 106.431 49.0071C106.655 49.0071 106.854 48.9449 106.991 48.8391C107.097 48.7583 107.209 48.553 107.277 48.3788H107.408C107.377 48.553 107.339 48.7085 107.302 49.0506C106.96 49.1377 106.698 49.2248 106.394 49.2248ZM108.782 47.2715C108.782 47.0538 108.776 46.8983 108.758 46.6992C108.658 46.6868 108.509 46.6868 108.415 46.6868C108.322 46.6868 108.154 46.693 108.036 46.7738C107.949 46.8361 107.911 46.948 107.843 47.1409H107.706C107.737 46.9231 107.762 46.6619 107.768 46.4379C107.961 46.4566 108.266 46.469 108.59 46.469H109.429C109.753 46.469 110.008 46.4566 110.313 46.4379C110.269 46.7116 110.238 46.8609 110.213 47.1409H110.07C110.051 47.0102 110.008 46.8236 109.933 46.7614C109.865 46.6992 109.753 46.6868 109.548 46.6868C109.485 46.6868 109.324 46.6868 109.261 46.6992C109.243 46.9045 109.23 47.0538 109.23 47.2715V48.3539C109.23 48.5716 109.243 48.7769 109.293 48.8951C109.33 48.9822 109.516 49.0009 109.716 49.0444V49.1751C109.523 49.1564 109.243 49.1502 109 49.1502C108.758 49.1502 108.484 49.1564 108.285 49.1751V49.0444C108.484 49.0009 108.67 48.9822 108.708 48.8951C108.764 48.7769 108.77 48.5716 108.77 48.3539V47.2715H108.782ZM111.862 46.4379C112.254 46.4379 112.789 46.5499 112.789 47.06C112.789 47.4519 112.347 47.6074 112.117 47.6572V47.6759C112.683 47.7567 113 48.018 113 48.4286C113 48.8267 112.708 49.1813 111.955 49.1813C111.731 49.1813 111.507 49.1502 111.19 49.1502C110.947 49.1502 110.779 49.1564 110.586 49.1751V49.0444C110.785 48.9947 110.91 48.9262 110.953 48.8391C111.009 48.7209 111.016 48.5716 111.016 48.3539V47.2715C111.016 47.0538 111.009 46.8485 110.953 46.7303C110.91 46.6432 110.785 46.6308 110.586 46.581V46.4504C110.779 46.469 110.947 46.4752 111.19 46.4752C111.376 46.4752 111.594 46.4379 111.862 46.4379ZM111.669 47.6012C111.93 47.6012 112.303 47.4706 112.303 47.0911C112.303 46.693 111.967 46.6432 111.793 46.6432C111.719 46.6432 111.576 46.6494 111.507 46.6681C111.482 46.7801 111.476 47.0538 111.476 47.2715V47.595C111.513 47.6012 111.625 47.6012 111.669 47.6012ZM111.47 48.3539C111.47 48.5716 111.476 48.7831 111.513 48.8578C111.563 48.9635 111.824 48.976 111.961 48.976C112.316 48.976 112.496 48.7458 112.496 48.4223C112.496 48.0367 112.204 47.8003 111.743 47.8003C111.669 47.8003 111.538 47.8003 111.476 47.8065V48.3539H111.47ZM39.5081 53.1937C39.5081 52.9759 39.4956 52.7644 39.4397 52.6462C39.4023 52.5591 39.2717 52.5529 39.0726 52.5032V52.3725C39.2655 52.3912 39.4894 52.3974 39.732 52.3974C39.9746 52.3974 40.1986 52.3912 40.3914 52.3725V52.5032C40.1924 52.5529 40.0617 52.5591 40.0244 52.6462C39.9684 52.7644 39.9622 52.9822 39.9622 53.1937V54.3134L41.5609 52.7831C41.5609 52.7333 41.5361 52.6773 41.5049 52.6276C41.4614 52.5654 41.3308 52.5467 41.1317 52.4969V52.3663C41.3245 52.385 41.5485 52.3912 41.7911 52.3912C42.0337 52.3912 42.2577 52.385 42.4505 52.3663V52.4969C42.2514 52.5467 42.1208 52.5529 42.0835 52.64C42.0275 52.7582 42.0213 52.9759 42.0213 53.1874V54.2699C42.0213 54.4876 42.0337 54.6929 42.0835 54.8111C42.1208 54.8981 42.2514 54.923 42.4505 54.9604V55.091C42.2577 55.0723 42.0337 55.0661 41.7911 55.0661C41.5485 55.0661 41.3245 55.0723 41.1317 55.091V54.9604C41.3308 54.923 41.4614 54.8981 41.4987 54.8111C41.5547 54.6929 41.5609 54.4876 41.5609 54.2699V53.0941L39.9622 54.6244C39.9622 54.6742 39.9684 54.7364 40.0182 54.8235C40.0617 54.8981 40.1986 54.9293 40.3977 54.9666V55.0972C40.2048 55.0786 39.9809 55.0723 39.7383 55.0723C39.4956 55.0723 39.2717 55.0786 39.0789 55.0972V54.9666C39.2779 54.9293 39.4086 54.9044 39.4459 54.8173C39.5019 54.6991 39.5143 54.4938 39.5143 54.2761V53.1937H39.5081ZM43.4085 53.5171C43.4209 53.2932 43.4334 53.1315 43.4334 53.0133C43.4334 52.9013 43.4147 52.7395 43.365 52.6649C43.309 52.584 43.141 52.5467 42.9357 52.5032V52.3725C43.1286 52.3974 43.3214 52.3974 43.508 52.3974C43.6573 52.3974 43.8253 52.3787 43.9124 52.3725C44.0492 52.7395 44.1114 52.8826 44.2483 53.1874L44.634 54.0272C44.7024 54.1765 44.746 54.2823 44.7895 54.3632H44.8144C44.8579 54.2823 44.9015 54.189 44.9512 54.0646L45.2872 53.3367C45.4302 53.0257 45.5547 52.7458 45.6729 52.3787C45.7848 52.3912 45.9839 52.3974 46.0959 52.3974C46.2825 52.3974 46.4816 52.3912 46.6184 52.3725V52.5032C46.4193 52.5467 46.2514 52.584 46.1954 52.6649C46.1456 52.7395 46.1456 52.9573 46.1456 53.0133C46.1456 53.0755 46.1581 53.2994 46.1643 53.4612L46.2016 54.1641C46.2141 54.4316 46.2452 54.6929 46.3011 54.8111C46.3385 54.8981 46.4691 54.9106 46.6682 54.9604V55.091C46.4753 55.0723 46.2514 55.0661 46.0088 55.0661C45.7662 55.0661 45.4924 55.0723 45.2934 55.091V54.9604C45.4924 54.9168 45.6729 54.8981 45.7164 54.8111C45.7475 54.7426 45.7599 54.6369 45.7599 54.5436C45.7599 54.4627 45.7537 54.3321 45.7475 54.1641L45.7226 53.4612C45.7164 53.3119 45.6977 53.1252 45.6977 52.9759H45.6729C45.592 53.175 45.5298 53.3243 45.4738 53.4425L45.0446 54.3694C44.8579 54.7862 44.7771 54.9915 44.7397 55.091H44.6091C44.5345 54.9044 44.41 54.6244 44.3167 54.4316L43.844 53.4114C43.7444 53.1937 43.7258 53.1252 43.6698 52.9759H43.6449C43.6324 53.1315 43.6138 53.3243 43.6076 53.5171L43.5889 54.1143C43.5827 54.2201 43.5765 54.388 43.5765 54.5062C43.5765 54.6182 43.5765 54.7364 43.6076 54.8111C43.6449 54.8981 43.8253 54.9168 44.0243 54.9604V55.091C43.8315 55.0661 43.6449 55.0661 43.4023 55.0661C43.1597 55.0661 43.0166 55.0661 42.8237 55.091V54.9604C43.0228 54.9106 43.2032 54.8981 43.2468 54.8111C43.309 54.6929 43.3463 54.4005 43.3587 54.1081L43.4085 53.5171ZM48.2171 53.7846C48.0989 53.7846 48.0305 53.7909 47.9559 53.8033V54.2699C47.9559 54.4876 47.9621 54.6555 47.9807 54.8173C48.1052 54.8422 48.3229 54.8484 48.5157 54.8484C48.6775 54.8484 48.945 54.8359 49.0383 54.7737C49.1378 54.7115 49.2311 54.5809 49.3493 54.3383H49.4862C49.4302 54.5871 49.3929 54.8359 49.3742 55.0848C49.1503 55.0661 48.6588 55.0599 48.2793 55.0599H47.763C47.6262 55.0599 47.2591 55.0661 47.0663 55.0848V54.9541C47.2654 54.9044 47.3898 54.8919 47.4333 54.8048C47.4893 54.6866 47.4955 54.4814 47.4955 54.2636V53.1812C47.4955 52.9635 47.4831 52.7582 47.4333 52.64C47.396 52.5529 47.2654 52.5405 47.0663 52.4907V52.3601C47.2591 52.3787 47.6137 52.385 47.7506 52.385H47.9372C48.2607 52.385 48.8641 52.3601 49.3742 52.3601C49.3244 52.5716 49.2747 52.8329 49.256 52.9946H49.1254C49.1067 52.8764 49.0818 52.752 49.0196 52.6773C48.9512 52.5902 48.721 52.5903 48.5593 52.5903C48.3975 52.5903 48.2918 52.5903 47.9994 52.6151C47.9683 52.7147 47.9621 52.9759 47.9621 53.1937V53.5545C48.0367 53.5669 48.1052 53.5731 48.2234 53.5731H48.3727C48.5282 53.5731 48.721 53.5731 48.7957 53.486C48.8579 53.4176 48.889 53.3492 48.9263 53.2372H49.0569C49.0321 53.4301 49.0321 53.5482 49.0321 53.6789C49.0321 53.8157 49.0321 53.9277 49.0569 54.1206H48.9263C48.889 54.0086 48.8641 53.9277 48.7894 53.8531C48.721 53.7846 48.522 53.7846 48.3727 53.7846H48.2171ZM50.4068 53.1937C50.4068 52.9759 50.3944 52.7644 50.3384 52.6462C50.3011 52.5591 50.1705 52.5529 49.9714 52.5032V52.3725C50.1642 52.3912 50.3882 52.3974 50.6308 52.3974C50.8734 52.3974 51.0973 52.3912 51.2902 52.3725V52.5032C51.0911 52.5529 50.9605 52.5591 50.9232 52.6462C50.8672 52.7644 50.861 52.9822 50.861 53.1937V53.5482C50.9667 53.5669 51.172 53.5669 51.4022 53.5669H51.8687C52.0927 53.5669 52.298 53.5607 52.4099 53.5482V53.1937C52.4099 52.9759 52.3975 52.7644 52.3477 52.6462C52.3104 52.5591 52.1798 52.5529 51.9807 52.5032V52.3725C52.1735 52.3912 52.3975 52.3974 52.6401 52.3974C52.8827 52.3974 53.1067 52.3912 53.2995 52.3725V52.5032C53.1004 52.5529 52.9698 52.5591 52.9325 52.6462C52.8765 52.7644 52.8703 52.9822 52.8703 53.1937V54.2761C52.8703 54.4938 52.8827 54.6991 52.9325 54.8173C52.9698 54.9044 53.1004 54.9293 53.2995 54.9666V55.0972C53.1067 55.0786 52.8827 55.0723 52.6401 55.0723C52.3975 55.0723 52.1735 55.0786 51.9807 55.0972V54.9666C52.1798 54.9293 52.3104 54.9044 52.3477 54.8173C52.4037 54.6991 52.4099 54.4938 52.4099 54.2761V53.8095C52.3042 53.7909 52.0989 53.7846 51.8687 53.7846H51.4022C51.1782 53.7846 50.9729 53.7909 50.861 53.8095V54.2761C50.861 54.4938 50.8734 54.6991 50.9232 54.8173C50.9605 54.9044 51.0911 54.9293 51.2902 54.9666V55.0972C51.0973 55.0786 50.8734 55.0723 50.6308 55.0723C50.3882 55.0723 50.1642 55.0786 49.9714 55.0972V54.9666C50.1705 54.9293 50.3011 54.9044 50.3384 54.8173C50.3944 54.6991 50.4068 54.4938 50.4068 54.2761V53.1937ZM54.158 53.1937C54.158 52.9759 54.1455 52.7644 54.0958 52.6462C54.0584 52.5591 53.9278 52.5529 53.7287 52.5032V52.3725C53.9216 52.3912 54.1455 52.3974 54.3881 52.3974C54.6307 52.3974 54.8547 52.3912 55.0475 52.3725V52.5032C54.8485 52.5529 54.7178 52.5591 54.6805 52.6462C54.6245 52.7644 54.6121 52.9822 54.6121 53.1937V54.3134L56.2108 52.7831C56.2108 52.7333 56.1859 52.6773 56.1548 52.6276C56.1113 52.5654 55.9806 52.5467 55.7816 52.4969V52.3663C55.9744 52.385 56.1984 52.3912 56.441 52.3912C56.6836 52.3912 56.9075 52.385 57.1004 52.3663V52.4969C56.9013 52.5467 56.7707 52.5529 56.7334 52.64C56.6774 52.7582 56.6711 52.9759 56.6711 53.1874V54.2699C56.6711 54.4876 56.6836 54.6929 56.7334 54.8111C56.7707 54.8981 56.9013 54.923 57.1004 54.9604V55.091C56.9075 55.0723 56.6836 55.0661 56.441 55.0661C56.1984 55.0661 55.9744 55.0723 55.7816 55.091V54.9604C55.9806 54.923 56.1113 54.8981 56.1486 54.8111C56.2046 54.6929 56.2108 54.4876 56.2108 54.2699V53.0941L54.6121 54.6244C54.6121 54.6742 54.6183 54.7364 54.6681 54.8235C54.7116 54.8981 54.8485 54.9293 55.0475 54.9666V55.0972C54.8547 55.0786 54.6307 55.0723 54.3881 55.0723C54.1455 55.0723 53.9216 55.0786 53.7287 55.0972V54.9666C53.9278 54.9293 54.0584 54.9044 54.0958 54.8173C54.1517 54.6991 54.158 54.4938 54.158 54.2761V53.1937ZM61.3803 53.7349C61.2434 53.7224 61.1065 53.7224 60.9635 53.7224H60.5218C60.3849 53.7224 60.273 53.7224 60.1361 53.7349L59.8811 54.444C59.8126 54.6431 59.7753 54.724 59.7753 54.7924C59.7753 54.8982 60.0055 54.9293 60.1734 54.9728V55.1034C60.0366 55.091 59.7566 55.0723 59.4705 55.0723C59.2465 55.0723 59.0786 55.0972 58.9666 55.1034V54.9728C59.0786 54.9541 59.203 54.9293 59.2839 54.8733C59.3896 54.8048 59.4954 54.612 59.5887 54.3756L60.7768 51.2217H60.9199L62.1827 54.4129C62.2823 54.6493 62.3071 54.7613 62.4005 54.8297C62.4938 54.8981 62.6182 54.9417 62.7426 54.9728V55.1034C62.6555 55.091 62.3134 55.0723 62.1579 55.0723C61.8095 55.0723 61.4985 55.0972 61.374 55.1034V54.9728C61.5296 54.9417 61.7597 54.8857 61.7597 54.78C61.7597 54.6929 61.7037 54.5871 61.654 54.4627L61.3803 53.7349ZM60.9697 53.4798C61.1128 53.4798 61.1999 53.4798 61.2807 53.4612L60.7582 52.1112H60.7333L60.2419 53.4674C60.3227 53.4798 60.3849 53.4798 60.528 53.4798H60.9697ZM63.5015 54.5062C63.6508 54.5062 63.825 54.6804 63.825 54.8297C63.825 54.979 63.6508 55.1532 63.5015 55.1532C63.3522 55.1532 63.1781 54.979 63.1781 54.8297C63.1781 54.6804 63.3522 54.5062 63.5015 54.5062ZM66.5621 55.1594C65.3678 55.1594 64.528 54.388 64.528 53.2248C64.528 52.0117 65.3802 51.2341 66.5684 51.2341C67.2091 51.2341 67.4455 51.4021 67.8374 51.4394C67.7939 51.6323 67.769 51.8375 67.7503 52.217H67.6072C67.5388 51.9744 67.4517 51.738 67.346 51.6571C67.1904 51.5327 66.811 51.483 66.5124 51.483C65.573 51.483 65.0878 52.2232 65.0878 53.1439C65.0878 54.0335 65.6041 54.9168 66.6492 54.9168C66.9229 54.9168 67.3024 54.8173 67.4455 54.6804C67.5512 54.5809 67.6819 54.301 67.7503 54.133H67.8934C67.8685 54.3134 67.8187 54.6431 67.7876 54.9293C67.3273 55.0537 66.9603 55.1594 66.5621 55.1594ZM68.9011 54.5062C69.0504 54.5062 69.2246 54.6804 69.2246 54.8297C69.2246 54.979 69.0504 55.1532 68.9011 55.1532C68.7519 55.1532 68.5777 54.979 68.5777 54.8297C68.5777 54.6804 68.7519 54.5062 68.9011 54.5062ZM70.3568 52.385C70.3568 52.1175 70.3568 51.7131 70.2822 51.5949C70.2262 51.5141 70.0707 51.4705 69.8716 51.4207V51.2777C70.0644 51.2963 70.3692 51.3088 70.6119 51.3088H73.4174C73.66 51.3088 73.9648 51.2901 74.1577 51.2777V51.4207C73.9586 51.4705 73.8031 51.5141 73.7471 51.5949C73.6725 51.7131 73.6725 52.1112 73.6725 52.385V54.0024C73.6725 54.2699 73.6725 54.6742 73.7471 54.7924C73.8031 54.8733 73.9586 54.9168 74.1577 54.9666V55.1034C73.9648 55.0848 73.66 55.0723 73.4174 55.0723C73.1748 55.0723 72.87 55.091 72.6771 55.1034V54.9666C72.8762 54.9168 73.0317 54.8733 73.0877 54.7924C73.1624 54.6742 73.1624 54.2761 73.1624 54.0024V51.5825C73.0566 51.5638 72.8513 51.5576 72.6212 51.5576H71.4019C71.1779 51.5576 70.9727 51.5638 70.8607 51.5825V54.0024C70.8607 54.2699 70.8607 54.6742 70.9353 54.7924C70.9913 54.8733 71.1468 54.9168 71.3459 54.9666V55.1034C71.1531 55.0848 70.8482 55.0723 70.6056 55.0723C70.363 55.0723 70.0582 55.091 69.8654 55.1034V54.9666C70.0644 54.9168 70.2199 54.8733 70.2759 54.7924C70.3506 54.6742 70.3506 54.2761 70.3506 54.0024V52.385H70.3568ZM75.7751 53.2559L76.2354 54.0708H76.2603L76.7269 53.0879C76.8326 52.864 76.8762 52.7644 76.8762 52.6711C76.8762 52.5778 76.6709 52.528 76.4905 52.4969V52.3663C76.6895 52.385 76.8575 52.3912 77.069 52.3912C77.2432 52.3912 77.3676 52.385 77.5231 52.3663V52.4969C77.4422 52.5218 77.3489 52.5529 77.2743 52.5965C77.1748 52.6525 77.0939 52.864 76.9259 53.2123L76.3287 54.4378C76.0239 55.0599 75.8933 55.147 75.6133 55.147C75.4889 55.147 75.3707 55.1159 75.2463 55.0661C75.2463 54.7737 75.2277 54.5311 75.2152 54.4005H75.3521C75.4081 54.5373 75.464 54.6618 75.52 54.7364C75.5822 54.8297 75.6444 54.8546 75.7129 54.8546C75.8311 54.8546 75.9244 54.7675 76.0177 54.5622L75.2463 53.2683C75.0535 52.9448 74.8917 52.6525 74.7735 52.5965C74.6864 52.5591 74.5558 52.5156 74.4936 52.4969V52.3663C74.6616 52.385 74.9104 52.3912 75.1281 52.3912C75.321 52.3912 75.576 52.385 75.7564 52.3663V52.4969C75.6631 52.5218 75.4889 52.5654 75.4889 52.6711C75.4827 52.752 75.576 52.9013 75.7751 53.2559ZM81.8403 54.2699C81.8403 54.4876 81.8528 54.7053 81.9025 54.8173C81.9399 54.9044 82.0705 54.9168 82.2696 54.9604V55.091C82.0767 55.0723 81.8528 55.0661 81.6102 55.0661H78.4376C78.195 55.0661 77.971 55.0723 77.7782 55.091V54.9604C77.9772 54.9168 78.1079 54.9044 78.1452 54.8173C78.2012 54.6991 78.2074 54.4814 78.2074 54.2699V53.1874C78.2074 52.9697 78.195 52.7644 78.1452 52.6462C78.1079 52.5591 77.9772 52.5343 77.7782 52.4969V52.3663C77.971 52.385 78.195 52.3912 78.4376 52.3912C78.6802 52.3912 78.9041 52.385 79.097 52.3663V52.4969C78.8979 52.5343 78.7673 52.5654 78.7299 52.6462C78.674 52.7644 78.6677 52.9697 78.6677 53.1874V54.8297C78.7735 54.8422 78.9788 54.8484 79.2089 54.8484H79.7999V53.1874C79.7999 52.9697 79.7875 52.7644 79.7377 52.6462C79.7004 52.5591 79.5697 52.5343 79.3707 52.4969V52.3663C79.5635 52.385 79.7875 52.3912 80.0301 52.3912C80.2727 52.3912 80.4966 52.385 80.6895 52.3663V52.4969C80.4904 52.5343 80.3598 52.5654 80.3225 52.6462C80.2665 52.7644 80.2603 52.9697 80.2603 53.1874V54.8484H80.8512C81.0814 54.8484 81.2867 54.8422 81.3924 54.8297V53.1874C81.3924 52.9697 81.38 52.7644 81.3302 52.6462C81.2929 52.5591 81.1623 52.5343 80.9632 52.4969V52.3663C81.156 52.385 81.38 52.3912 81.6226 52.3912C81.8652 52.3912 82.0892 52.385 82.282 52.3663V52.4969C82.0829 52.5343 81.9523 52.5654 81.915 52.6462C81.859 52.7644 81.8528 52.9697 81.8528 53.1874V54.2699H81.8403ZM83.5883 54.2699C83.5883 54.4876 83.6008 54.6929 83.6506 54.8111C83.6879 54.8981 83.8185 54.9106 84.0176 54.9604V55.091C83.8247 55.0723 83.551 55.0661 83.3582 55.0661C83.1716 55.0661 82.8916 55.0723 82.6988 55.091V54.9604C82.8979 54.9106 83.0285 54.8981 83.0658 54.8111C83.1218 54.6929 83.128 54.4876 83.128 54.2699V53.1874C83.128 52.9697 83.1156 52.7644 83.0658 52.6462C83.0285 52.5591 82.8979 52.5467 82.6988 52.4969V52.3663C82.8916 52.385 83.1653 52.3912 83.3582 52.3912C83.5448 52.3912 83.7688 52.385 83.9616 52.3663V52.4969C83.7625 52.5467 83.6879 52.5654 83.6506 52.6462C83.5946 52.7644 83.5883 52.9697 83.5883 53.1874V54.2699ZM83.6506 53.6727L84.3722 52.9946C84.621 52.7582 84.7019 52.6711 84.7019 52.6151C84.7019 52.5591 84.5712 52.528 84.4095 52.5032V52.3725C84.5899 52.3912 84.7205 52.3974 84.8823 52.3974C85.0876 52.3974 85.3053 52.3912 85.4795 52.3725V52.5032C85.1311 52.5591 85.1062 52.6214 84.6894 52.9946L84.0985 53.5234L84.9631 54.4627C85.2804 54.8111 85.3675 54.867 85.6474 54.9666V55.0972C85.5106 55.0786 85.3426 55.0723 85.2306 55.0723C85.1249 55.0723 85.0316 55.0786 84.8885 55.0972C84.7143 54.8857 84.5961 54.7488 84.4904 54.6244L83.6506 53.6727ZM86.3068 53.1937C86.3068 52.9759 86.2944 52.7644 86.2446 52.6462C86.2073 52.5591 86.0767 52.5529 85.8776 52.5032V52.3725C86.0704 52.3912 86.2944 52.3974 86.537 52.3974C86.7796 52.3974 87.0035 52.3912 87.1964 52.3725V52.5032C86.9973 52.5529 86.8667 52.5591 86.8294 52.6462C86.7734 52.7644 86.7672 52.9822 86.7672 53.1937V54.3134L88.3659 52.7831C88.3659 52.7333 88.3472 52.6773 88.3037 52.6276C88.2601 52.5654 88.1295 52.5467 87.9304 52.4969V52.3663C88.1233 52.385 88.3472 52.3912 88.5898 52.3912C88.8325 52.3912 89.0564 52.385 89.2492 52.3663V52.4969C89.0502 52.5467 88.9195 52.5529 88.8822 52.64C88.8262 52.7582 88.82 52.9759 88.82 53.1874V54.2699C88.82 54.4876 88.8325 54.6929 88.8822 54.8111C88.9195 54.8981 89.0502 54.923 89.2492 54.9604V55.091C89.0564 55.0723 88.8325 55.0661 88.5898 55.0661C88.3472 55.0661 88.1233 55.0723 87.9304 55.091V54.9604C88.1295 54.923 88.2601 54.8981 88.2975 54.8111C88.3535 54.6929 88.3597 54.4876 88.3597 54.2699V53.0941L86.7609 54.6244C86.7609 54.6742 86.7672 54.7364 86.8169 54.8235C86.8605 54.8981 86.9973 54.9293 87.1964 54.9666V55.0972C87.0035 55.0786 86.7796 55.0723 86.537 55.0723C86.2944 55.0723 86.0704 55.0786 85.8776 55.0972V54.9666C86.0767 54.9293 86.2073 54.9044 86.2446 54.8173C86.3006 54.6991 86.3068 54.4938 86.3068 54.2761V53.1937ZM90.1077 53.1937C90.1077 52.9759 90.0953 52.7644 90.0455 52.6462C90.0082 52.5591 89.8775 52.5529 89.6785 52.5032V52.3725C89.8713 52.3912 90.0953 52.3974 90.3379 52.3974C90.5805 52.3974 90.8044 52.3912 90.9973 52.3725V52.5032C90.7982 52.5529 90.6676 52.5591 90.6302 52.6462C90.5743 52.7644 90.568 52.9822 90.568 53.1937V53.5482C90.6738 53.5669 90.8791 53.5669 91.1092 53.5669H91.5758C91.806 53.5669 92.005 53.5607 92.117 53.5482V53.1937C92.117 52.9759 92.1046 52.7644 92.0548 52.6462C92.0175 52.5591 91.8868 52.5529 91.6878 52.5032V52.3725C91.8806 52.3912 92.1046 52.3974 92.3472 52.3974C92.5898 52.3974 92.8137 52.3912 93.0066 52.3725V52.5032C92.8075 52.5529 92.6769 52.5591 92.6395 52.6462C92.5836 52.7644 92.5773 52.9822 92.5773 53.1937V54.2761C92.5773 54.4938 92.5898 54.6991 92.6395 54.8173C92.6769 54.9044 92.8075 54.9293 93.0066 54.9666V55.0972C92.8137 55.0786 92.5898 55.0723 92.3472 55.0723C92.1046 55.0723 91.8806 55.0786 91.6878 55.0972V54.9666C91.8868 54.9293 92.0175 54.9044 92.0548 54.8173C92.1108 54.6991 92.117 54.4938 92.117 54.2761V53.8095C92.0113 53.7909 91.806 53.7846 91.5758 53.7846H91.1092C90.8791 53.7846 90.68 53.7909 90.568 53.8095V54.2761C90.568 54.4938 90.5805 54.6991 90.6302 54.8173C90.6676 54.9044 90.7982 54.9293 90.9973 54.9666V55.0972C90.8044 55.0786 90.5805 55.0723 90.3379 55.0723C90.0953 55.0723 89.8713 55.0786 89.6785 55.0972V54.9666C89.8775 54.9293 90.0082 54.9044 90.0455 54.8173C90.1015 54.6991 90.1077 54.4938 90.1077 54.2761V53.1937ZM95.1465 54.2699C95.0097 54.2574 94.8915 54.2574 94.7546 54.2574H94.5929C94.4498 54.2574 94.288 54.2574 94.1574 54.2699L94.0454 54.556C94.0143 54.6307 93.9708 54.7364 93.9708 54.8048C93.9708 54.9106 94.1699 54.9355 94.344 54.979V55.0972C94.2072 55.0786 94.0143 55.0661 93.7282 55.0661C93.5042 55.0661 93.3798 55.0848 93.2678 55.0972V54.979C93.3674 54.9604 93.4731 54.9355 93.554 54.8919C93.6598 54.8297 93.7282 54.6555 93.7904 54.5062L94.68 52.3228H94.8106L95.7624 54.5311C95.8246 54.6742 95.8681 54.7924 95.9303 54.8484C95.9863 54.9106 96.1107 54.9479 96.2414 54.979V55.0972C96.1543 55.0848 95.8432 55.0723 95.6877 55.0723C95.3394 55.0723 95.1279 55.0848 95.0034 55.0972V54.979C95.159 54.9479 95.3642 54.9044 95.3642 54.8048C95.3642 54.7426 95.3083 54.6307 95.2772 54.5622L95.1465 54.2699ZM94.7484 54.0397C94.8915 54.0397 94.9723 54.0397 95.047 54.0272L94.6488 53.063H94.624L94.2383 54.0272C94.3192 54.0397 94.4436 54.0397 94.5866 54.0397H94.7484Z" fill="#76777A"/>
<defs>
<linearGradient id="paint0_linear" x1="66.0335" y1="12.9879" x2="105.807" y2="12.9879" gradientUnits="userSpaceOnUse">
<stop stop-color="#B8B8B8"/>
<stop offset="1" stop-color="#98989A"/>
</linearGradient>
<linearGradient id="paint1_linear" x1="0" y1="12.9879" x2="39.7728" y2="12.9879" gradientUnits="userSpaceOnUse">
<stop stop-color="#BFBFBF"/>
<stop offset="1" stop-color="#979797"/>
</linearGradient>
</defs>
</svg>
