<svg width="154" height="20" viewBox="0 0 154 20" fill="none" xmlns="http://www.w3.org/2000/svg">
<g clip-path="url(#clip0)">
<path d="M44.8924 5.64282C43.5849 5.64282 42.4953 6.71425 42.4953 7.99997V9.99997H39.2264V5.64282H39.0811C37.7736 5.64282 36.684 6.71425 36.684 7.99997V15.9285H36.8292C38.1368 15.9285 39.2264 14.8571 39.2264 13.5714V11.6428H42.4953V15.9285H44.9651V5.64282H44.8924Z" fill="black"/>
<path d="M144.193 5.64282C142.886 5.64282 141.796 6.71425 141.796 7.99997V9.99997H138.527V5.64282H138.382C137.074 5.64282 135.985 6.71425 135.985 7.99997V15.9285H136.13C137.438 15.9285 138.527 14.8571 138.527 13.5714V11.6428H141.796V15.9285H144.266V5.64282H144.193Z" fill="black"/>
<path d="M30.7274 14.1428C29.2019 14.1428 28.1849 11.7142 28.1849 8.78561C28.1849 5.92847 29.2745 3.85704 30.7274 3.85704C32.1802 3.85704 33.3425 5.85704 33.3425 8.78561C33.3425 12.0713 32.3981 14.1428 30.7274 14.1428ZM30.7274 1.92847C27.8217 1.92847 25.933 4.35704 25.7151 7.92847H22.7368V2.07132C21.284 2.07132 20.1943 3.21418 20.1943 4.57132V15.9285C21.5745 15.9285 22.7368 14.7856 22.7368 13.357V9.71418H25.7151C25.933 13.0713 27.8217 16.0713 30.7274 16.0713C34.0689 16.0713 35.8849 12.857 35.8849 8.71418C35.8849 4.92847 33.9962 1.92847 30.7274 1.92847Z" fill="black"/>
<path d="M53.9 5.64282C53.1009 5.64282 52.3745 5.92854 51.7934 6.78568L48.5245 12.3571V5.64282H46.0547V15.9285H47.1443C47.9434 15.9285 48.6698 15.6428 49.2509 14.7857L52.6651 8.99997V13.5714C52.6651 14.8571 53.7547 15.9285 55.0622 15.9285H55.2075V5.64282H53.9Z" fill="black"/>
<path d="M104.095 5.64282C103.296 5.64282 102.57 5.92854 101.989 6.78568L98.7198 12.3571V5.64282H96.25V15.9285H97.3396C98.1387 15.9285 98.8651 15.6428 99.4462 14.7857L102.86 8.99997V13.5714C102.86 14.8571 103.95 15.9285 105.258 15.9285H105.403V5.64282H104.095Z" fill="black"/>
<path d="M63.9972 10.9285C63.416 9.64282 62.5443 8.71425 61.3094 8.28568L65.8132 2.14282H62.9802L58.6217 8.21425V2.14282H58.549C57.0962 2.14282 56.0066 3.14282 56.0066 4.57139V15.9285H56.0792C57.5321 15.9285 58.6217 14.9285 58.6217 13.5V9.28568C59.9292 9.28568 60.8736 10.1428 61.3094 11.2143L63.1255 15.9285H65.9585L63.9972 10.9285Z" fill="black"/>
<path d="M113.393 5.64282H105.911V7.57139H108.454V15.8571H108.599C109.907 15.8571 110.924 14.7857 110.924 13.5714V7.57139H113.466V5.64282H113.393Z" fill="black"/>
<path d="M87.533 14.0714C88.6953 12.8571 89.2764 10.7143 89.4943 8.99997L89.6396 7.49996H91.6009L92.1821 14H87.533V14.0714ZM94.5066 14L93.6349 5.64282H87.6783L87.3151 8.14282C86.9519 10.3571 86.4434 13.1428 84.4094 14.3571L84.5547 18.6428H84.7C85.717 18.6428 86.516 17.8571 86.516 16.8571V15.9285H93.3443L93.417 18.5714H93.5623C94.5792 18.5714 95.3783 17.7857 95.3783 16.7857L95.4509 14.2857L94.5066 14Z" fill="black"/>
<path d="M152.402 12.6428C151.821 11.5714 151.167 10.7143 150.223 10.3571L153.927 5.64282H151.24L147.68 10.2857V5.64282H145.21V15.9285H145.356C146.663 15.9285 147.753 14.8571 147.753 13.5714V11.2143C148.77 11.2143 149.569 12 149.932 12.8571L151.457 15.8571H154.145L152.402 12.6428Z" fill="black"/>
<path d="M121.674 14.2144H120.149V9.28582C120.44 9.21439 121.021 9.14296 121.529 9.14296C123.345 9.14296 124.362 10.2144 124.362 11.5001C124.362 12.9287 123.345 14.2144 121.674 14.2144ZM121.747 7.28582C121.166 7.28582 120.512 7.35725 120.149 7.5001V4.21439H123.491C124.653 4.21439 125.67 3.28582 125.67 2.07153H117.752V15.9287H121.82C124.871 15.9287 127.123 14.3572 127.123 11.5715C126.977 9.21439 125.089 7.28582 121.747 7.28582Z" fill="black"/>
<path d="M77.8718 10.0714C77.8718 8.28568 78.5255 7.28568 79.9057 7.21425H79.9784C80.6321 7.21425 81.9397 7.42854 82.0123 9.49997L77.8718 10.0714ZM84.1916 10.5C84.1916 7.42854 82.6661 5.64282 79.9784 5.64282C77.218 5.64282 75.5472 7.71425 75.5472 10.7857C75.5472 14 77.3633 16 80.4142 16C82.085 16 83.2472 15.5714 83.901 15.2857V13.2857C83.2472 13.7143 82.3755 14.2857 80.6321 14.2857C79.034 14.2857 78.235 13.4285 78.0171 11.7143L84.1916 10.8571V10.5Z" fill="black"/>
<path d="M133.007 14.7143C132.789 14.7857 132.135 14.7857 131.626 14.7857C130.319 14.7857 129.52 14.2143 129.52 12.9285C129.52 11.2143 130.827 10.7857 133.007 10.5714V14.7143ZM127.268 13C127.268 14.9285 128.721 16.0714 131.481 16.0714H131.99C132.934 16.0714 134.532 15.9285 135.259 15.7857V9.28568C135.259 6.71425 133.515 5.64282 131.409 5.64282C129.81 5.64282 128.575 6.07139 127.922 6.42854V8.07139C129.011 7.49997 130.028 7.14282 130.973 7.14282C132.135 7.14282 133.007 7.49997 133.007 8.78568V9.42854C129.883 9.78568 127.268 10.3571 127.268 13Z" fill="black"/>
<path d="M69.8812 14.5C69.518 14.5 69.2274 14.4285 69.0095 14.3571V7.35711C69.3001 7.21425 69.6633 7.21425 70.0265 7.21425C71.6246 7.21425 72.351 8.35711 72.351 10.8571C72.4236 12.5 71.9878 14.5 69.8812 14.5ZM70.0991 5.64282C68.7189 5.64282 67.484 5.85711 66.6123 6.35711L66.5397 6.42854V20H66.685C67.9925 20 69.0095 18.9285 69.0095 17.7142V15.9285C69.3727 16 69.8812 16.0714 70.3897 16.0714C73.0774 16.0714 74.8934 13.9285 74.8934 10.7857C74.8934 7.57139 73.0774 5.64282 70.0991 5.64282Z" fill="black"/>
<path fill-rule="evenodd" clip-rule="evenodd" d="M9.08019 4.42857C9.22547 4.21428 9.15283 4.07143 9.08019 4C9.00755 3.92857 7.7 3.14286 7.7 3.14286C7.62736 3.07143 7.55472 3 7.55472 2.85714C7.55472 2.64286 7.7 2.5 7.91792 2.42857C8.78962 2.21429 11.8406 2.07143 12.8575 2.07143C13.2208 2.07143 13.8019 2.07143 14.383 2.07143C12.7849 0.785714 10.8236 0 8.71698 0C3.92264 0 0 3.85714 0 8.57143C0 10.6429 0.726415 12.5714 2.03396 14C3.12358 12.4286 5.81132 8.64286 6.39245 7.85714C7.04623 6.92857 8.64434 5 8.86226 4.64286L9.08019 4.42857Z" fill="#E2001A"/>
<path fill-rule="evenodd" clip-rule="evenodd" d="M3.41418 15.3572C4.86701 16.5001 6.75569 17.1429 8.71701 17.1429C13.5114 17.1429 17.434 13.2858 17.434 8.5715C17.434 7.14293 17.0708 5.78578 16.417 4.64293C16.7076 4.35721 17.0708 3.92864 16.8529 3.35721C16.7802 3.21436 16.417 2.78578 16.3444 2.71436C16.5623 3.35721 16.1264 3.71436 15.8359 4.00007C15.6906 4.14293 13.4387 6.21436 10.8963 8.42864C8.64437 10.3572 6.02928 12.3572 4.57645 13.5001C2.46984 15.0001 2.10664 15.2858 2.10664 15.2858C2.03399 15.2858 1.96135 15.3572 1.88871 15.3572C1.74343 15.3572 1.67079 15.2858 1.59814 15.2144V15.2858C1.81607 15.6429 2.17928 16.0715 2.3972 16.0715C2.46984 16.0715 2.54248 16.0715 2.61513 16.0001C2.54248 15.8572 2.76041 15.7858 3.41418 15.3572Z" fill="#E2001A"/>
<path fill-rule="evenodd" clip-rule="evenodd" d="M9.08023 4.42868C9.22551 4.21439 9.15287 4.07153 9.08023 4.0001C9.00759 3.92868 7.70004 3.14296 7.70004 3.14296C7.6274 3.07153 7.55476 3.0001 7.55476 2.85725C7.55476 2.64296 7.70004 2.5001 7.91797 2.42868C8.78966 2.21439 11.8406 2.07153 12.8576 2.07153C13.3661 2.07153 14.3104 2.07153 14.9642 2.14296C15.6906 2.21439 16.1991 2.35725 16.3444 2.64296C16.6349 3.28582 16.1991 3.71439 15.8359 4.0001C15.6906 4.14296 13.4387 6.21439 10.8963 8.42868C8.64438 10.3572 6.02929 12.3572 4.57646 13.5001C2.46985 15.0001 2.10664 15.2858 2.10664 15.2858C2.034 15.2858 1.96136 15.3572 1.88872 15.3572C1.6708 15.3572 1.52551 15.2144 1.52551 15.0001C1.52551 14.9287 1.52551 14.8572 1.59815 14.7858C1.59815 14.7858 5.66608 9.0001 6.46514 8.0001C7.19155 7.0001 9.00759 4.71439 9.00759 4.71439C9.00759 4.71439 8.93495 4.57153 9.08023 4.42868Z" fill="#FEFEFE"/>
</g>
<defs>
<clipPath id="clip0">
<rect width="154" height="20" fill="white"/>
</clipPath>
</defs>
</svg>
