<svg width="170" height="27" viewBox="0 0 170 27" fill="none" xmlns="http://www.w3.org/2000/svg">
<path d="M23.1 0.799998V26H17.304V5.552H5.928V26H0.132V0.799998H23.1ZM46.4108 20.6H34.7108L32.4788 26H26.5028L37.7348 0.799998H43.4948L54.7628 26H48.6428L46.4108 20.6ZM44.5748 16.172L40.5788 6.524L36.5828 16.172H44.5748ZM69.7771 26.432C67.1611 26.432 64.7971 25.868 62.6851 24.74C60.5971 23.612 58.9531 22.064 57.7531 20.096C56.5771 18.104 55.9891 15.872 55.9891 13.4C55.9891 10.928 56.5771 8.708 57.7531 6.74C58.9531 4.748 60.5971 3.188 62.6851 2.06C64.7971 0.931999 67.1611 0.368 69.7771 0.368C72.3931 0.368 74.7451 0.931999 76.8331 2.06C78.9211 3.188 80.5651 4.748 81.7651 6.74C82.9651 8.708 83.5651 10.928 83.5651 13.4C83.5651 15.872 82.9651 18.104 81.7651 20.096C80.5651 22.064 78.9211 23.612 76.8331 24.74C74.7451 25.868 72.3931 26.432 69.7771 26.432ZM69.7771 21.464C71.2651 21.464 72.6091 21.128 73.8091 20.456C75.0091 19.76 75.9451 18.8 76.6171 17.576C77.3131 16.352 77.6611 14.96 77.6611 13.4C77.6611 11.84 77.3131 10.448 76.6171 9.224C75.9451 8 75.0091 7.052 73.8091 6.38C72.6091 5.684 71.2651 5.336 69.7771 5.336C68.2891 5.336 66.9451 5.684 65.7451 6.38C64.5451 7.052 63.5971 8 62.9011 9.224C62.2291 10.448 61.8931 11.84 61.8931 13.4C61.8931 14.96 62.2291 16.352 62.9011 17.576C63.5971 18.8 64.5451 19.76 65.7451 20.456C66.9451 21.128 68.2891 21.464 69.7771 21.464ZM115.713 12.86C117.249 13.316 118.425 14.06 119.241 15.092C120.057 16.124 120.465 17.396 120.465 18.908C120.465 21.14 119.613 22.88 117.909 24.128C116.229 25.376 113.817 26 110.673 26H98.2531V0.799998H109.989C112.917 0.799998 115.197 1.364 116.829 2.492C118.461 3.62 119.277 5.228 119.277 7.316C119.277 8.564 118.965 9.668 118.341 10.628C117.717 11.564 116.841 12.308 115.713 12.86ZM104.049 11.24H109.485C110.757 11.24 111.717 10.988 112.365 10.484C113.013 9.956 113.337 9.188 113.337 8.18C113.337 7.196 113.001 6.44 112.329 5.912C111.681 5.384 110.733 5.12 109.485 5.12H104.049V11.24ZM110.457 21.68C113.193 21.68 114.561 20.6 114.561 18.44C114.561 16.352 113.193 15.308 110.457 15.308H104.049V21.68H110.457ZM143.986 5.552H135.922V26H130.162V5.552H122.134V0.799998H143.986V5.552ZM147.648 0.799998H167.988V5.444H153.444V10.628H160.428C163.476 10.628 165.792 11.264 167.376 12.536C168.984 13.808 169.788 15.644 169.788 18.044C169.788 20.564 168.9 22.52 167.124 23.912C165.348 25.304 162.84 26 159.6 26H147.648V0.799998ZM159.276 21.68C160.764 21.68 161.904 21.392 162.696 20.816C163.488 20.216 163.884 19.352 163.884 18.224C163.884 16.016 162.348 14.912 159.276 14.912H153.444V21.68H159.276Z" fill="black"/>
</svg>
