<svg width="11" height="11" viewBox="0 0 11 11" fill="none" xmlns="http://www.w3.org/2000/svg"><path d="M10.713 9.009L9.278 7.586a5.065 5.065 0 00.765-2.655C10.043 2.276 7.748 0 4.973 0 2.297 0 0 2.276 0 4.931c0 2.75 2.296 5.026 4.974 5.026.956 0 1.913-.285 2.583-.759l1.434 1.423c.192.19.479.379.861.379.287 0 .574-.19.765-.38.192-.189.383-.473.383-.853 0-.19-.096-.569-.287-.758zM8.226 4.93c0 1.707-1.435 3.13-3.156 3.13-1.722 0-3.253-1.328-3.253-3.13 0-1.802 1.435-3.13 3.157-3.13s3.252 1.423 3.252 3.13z" fill="currentColor"/></svg>