<svg width="24" height="24" viewBox="0 0 24 24" fill="none" xmlns="http://www.w3.org/2000/svg">
<circle cx="12" cy="12" r="12" fill="#DAC9BA"/>
<path d="M16.75 12.2571C16.4167 11.9143 15.9167 11.9143 15.5833 12.2571L12.8333 15.0857V6.85714C12.8333 6.34286 12.5 6 12 6C11.5 6 11.1667 6.34286 11.1667 6.85714V15.0857L8.41667 12.2571C8.08333 11.9143 7.58333 11.9143 7.25 12.2571C6.91667 12.6 6.91667 13.1143 7.25 13.4571L11.4167 17.7429C11.5 17.8286 11.5833 17.9143 11.6667 17.9143C11.75 18 11.9167 18 12 18C12.0833 18 12.25 18 12.3333 17.9143C12.4167 17.8286 12.5 17.8286 12.5833 17.7429L16.75 13.4571C17.0833 13.1143 17.0833 12.6 16.75 12.2571Z" fill="white"/>
</svg>
