<svg width="113" height="56" viewBox="0 0 113 56" fill="none" xmlns="http://www.w3.org/2000/svg"><path d="M105.809 0H66.033v25.978h39.776V0z" fill="url(#paint0_linear)"/><path d="M39.776 0H0v25.978h39.776V0z" fill="url(#paint1_linear)"/><path d="M39.732 6.644v26.444h26.345V6.644H39.732zm5.375 21.822h-.946s-.006-.97-.006-5.312c0-.772.031-4.772.031-4.772h.896s.037 4.069.037 4.79c0 4.336-.012 5.294-.012 5.294zm3.328 0h-.946s-.012-.97-.012-5.312c0-.772.037-4.772.037-4.772h.896s.037 4.069.037 4.79c0 4.336-.012 5.294-.012 5.294zm3.322 0h-.946s-.012-.97-.012-5.312c0-.772.03-4.772.03-4.772h.897s.037 4.069.037 4.79c.006 4.336-.006 5.294-.006 5.294zm3.328 0h-.946s-.012-.97-.012-5.312c0-.772.031-4.772.031-4.772h.896s.043 4.069.043 4.79c0 4.336-.012 5.294-.012 5.294zm3.328 0h-.946s-.012-.97-.012-5.312c0-.772.031-4.772.031-4.772h.896s.043 4.069.043 4.79c0 4.336-.012 5.294-.012 5.294zm3.322 0h-.946s-.006-.97-.006-5.312c0-.772.031-4.772.031-4.772h.896s.044 4.069.044 4.79a643.892 643.892 0 01-.02 5.294zm.703-14.202l-9.474-2.021-9.512 2.021-.106-.572 9.618-2.084 9.58 2.084-.106.572z" fill="#AFAFAF"/><path d="M39.614 40.54c0-.267 0-.671-.075-.79-.056-.08-.211-.124-.41-.174v-.136c.193.018.497.03.74.03h.242c.43 0 1.176-.03 1.792-.03-.068.317-.112.671-.143.833h-.137c-.025-.124-.043-.392-.15-.473-.111-.093-.372-.093-.59-.093-.218 0-.255 0-.71.044-.03.093-.05.522-.05.79v1.617c0 .267 0 .672.076.79.056.08.317.137.516.174v.137a11.683 11.683 0 00-.846-.031c-.243 0-.547.019-.74.031v-.137c.199-.05.354-.093.41-.174.075-.118.075-.516.075-.79v-1.617zm4.193-.068c.97 0 1.418.716 1.418 1.419 0 .808-.771 1.412-1.53 1.412-.97 0-1.419-.797-1.419-1.493.006-.809.778-1.338 1.53-1.338zm-1.02 1.282c0 .647.267 1.325.964 1.325.647 0 .964-.48.964-1.126 0-.647-.268-1.25-.964-1.25-.647 0-.965.404-.965 1.05zm4.528 1.549c-.92 0-1.549-.548-1.549-1.388 0-.89.635-1.443 1.55-1.443.372 0 .609.112.95.162a4.507 4.507 0 00-.086.628h-.13c-.063-.199-.144-.367-.231-.429-.106-.08-.292-.143-.541-.143-.635 0-1.008.491-1.008 1.145 0 .671.336 1.25 1.076 1.25a.922.922 0 00.56-.168c.106-.08.218-.286.286-.46h.13c-.03.18-.061.33-.105.672-.336.087-.597.174-.902.174zm2.607-1.891l.46.815h.019l.466-.983c.106-.224.15-.324.15-.417 0-.093-.206-.143-.386-.174v-.131c.199.019.367.025.578.025.174 0 .305-.006.454-.025v.13c-.08.026-.174.05-.248.1-.1.056-.18.261-.349.616l-.59 1.225c-.306.629-.436.71-.716.71a.977.977 0 01-.367-.081c0-.293-.019-.535-.031-.666h.143c.056.137.112.261.168.336.062.093.124.118.193.118.118 0 .211-.087.304-.292l-.77-1.294c-.194-.324-.355-.616-.474-.672a3.158 3.158 0 00-.28-.1v-.13c.168.019.417.025.635.025.193 0 .448-.006.634-.025v.13c-.093.026-.267.069-.267.175-.019.08.068.23.274.585zm2.768 1.816c-.143 0-.355.012-.492.106-.118.087-.224.429-.298.603h-.143c.03-.267.043-.734.05-.958.105.019.18.025.286.025h.068c.1-.112.212-.305.292-.585.1-.367.156-.671.206-1.063.018-.137.025-.23.025-.343a.383.383 0 00-.056-.211c-.05-.087-.243-.13-.398-.156v-.143c.192.019.41.031.653.031h1.126c.242 0 .51-.018.709-.03v.142c-.2.05-.33.063-.367.15-.056.118-.069.323-.069.54v1.083c0 .218.019.442.044.517.019.043.068.068.23.068.087 0 .193-.019.28-.031-.044.187-.1.66-.143.964h-.137c-.062-.224-.093-.529-.199-.628-.068-.062-.305-.087-.622-.087H52.69v.006zm1.145-1.879a3.62 3.62 0 00-.032-.566 2.344 2.344 0 00-.317-.018h-.13c-.137 0-.3 0-.349.074-.056.075-.075.187-.106.398-.025.23-.043.33-.087.585-.05.305-.1.547-.18.765-.062.18-.112.305-.187.423h1.363c.024-.118.024-.367.024-.584v-1.077zm3.054 1.077c-.137-.013-.255-.013-.392-.013h-.162c-.137 0-.305 0-.435.013l-.112.286a.807.807 0 00-.075.248c0 .106.2.131.373.175v.118a4.686 4.686 0 00-.615-.031c-.224 0-.349.018-.46.03v-.117a.964.964 0 00.285-.087c.106-.063.175-.237.237-.386l.89-2.184h.13l.952 2.209c.068.143.105.261.168.317.062.062.18.1.304.13v.119a6.535 6.535 0 00-.547-.025c-.348 0-.56.012-.684.025v-.118c.155-.031.36-.075.36-.174 0-.063-.055-.175-.087-.243l-.13-.293zm-.398-.23c.137 0 .224 0 .298-.013l-.398-.964h-.018l-.386.97c.08.013.205.013.342.013h.162v-.007zm2.637.236c0 .218.013.423.063.541.037.087.223.1.472.15v.13a10.568 10.568 0 00-1.424 0v-.13c.199-.05.33-.07.367-.15.056-.118.062-.323.062-.541v-1.083c0-.217-.012-.423-.062-.54-.038-.088-.168-.1-.367-.15v-.13c.193.018.392.024.585.024.186 0 .553-.043.696-.043.703 0 1.076.33 1.076.846 0 .479-.398.84-.995.84-.106 0-.305-.032-.367-.063v-.13c.056.012.187.018.292.018.498 0 .56-.423.56-.634 0-.585-.354-.666-.566-.666a1.7 1.7 0 00-.38.037c-.018.143-.018.374-.018.591v1.083h.006zm3.471.87c-.926 0-1.548-.547-1.548-1.387 0-.89.634-1.443 1.548-1.443.374 0 .61.112.952.162a4.507 4.507 0 00-.087.628h-.13c-.063-.199-.137-.367-.224-.429-.106-.08-.293-.143-.542-.143-.64 0-1.007.491-1.007 1.145 0 .671.336 1.25 1.076 1.25a.921.921 0 00.56-.168c.1-.08.217-.286.286-.46h.13c-.03.18-.062.33-.105.672-.342.087-.61.174-.909.174zm2.39-1.953c0-.217-.007-.373-.026-.572-.105-.012-.248-.012-.342-.012-.093 0-.267.006-.38.087-.086.062-.124.174-.192.367h-.143c.031-.218.056-.48.068-.703.193.018.498.03.822.03h.84c.323 0 .578-.012.883-.03-.044.273-.069.423-.1.703h-.143c-.019-.13-.062-.318-.137-.38-.068-.056-.18-.074-.386-.074-.055 0-.224 0-.286.012a4.292 4.292 0 00-.03.572v1.083c0 .218.012.423.068.541.037.087.224.106.423.15v.13a8.193 8.193 0 00-.71-.025c-.242 0-.516.006-.715.025v-.13c.2-.044.386-.07.423-.15.056-.118.062-.323.062-.541v-1.083zm3.079-.833c.392 0 .927.112.927.622 0 .392-.442.547-.672.597v.019c.566.08.883.342.883.752 0 .398-.292.753-1.045.753-.224 0-.448-.031-.765-.031-.243 0-.41.006-.604.025v-.13c.2-.05.324-.119.367-.206.063-.118.063-.267.063-.485v-1.083c0-.217-.007-.423-.063-.54-.043-.088-.168-.1-.367-.15v-.13c.193.018.361.024.604.024.18 0 .398-.037.672-.037zm-.193 1.163c.261 0 .634-.13.634-.51 0-.398-.336-.448-.516-.448a2.04 2.04 0 00-.286.019 4.966 4.966 0 00-.031.603v.324c.043.012.149.012.199.012zm-.2.753c0 .218.007.429.044.51.05.1.305.118.448.118.355 0 .535-.23.535-.554 0-.385-.292-.622-.753-.622-.074 0-.205 0-.273.007v.54zm3.167-.486c-.118 0-.18.007-.261.02v.466c0 .218.006.385.025.547.124.025.342.031.535.031.161 0 .429-.012.522-.074.1-.063.193-.193.311-.436h.143a5.154 5.154 0 00-.112.747 17.784 17.784 0 00-1.095-.025h-.51c-.137 0-.504.006-.696.025v-.131c.199-.05.323-.068.367-.15.062-.117.062-.323.062-.54v-1.083c0-.218-.013-.423-.062-.541-.038-.087-.168-.1-.367-.15v-.13c.193.019.547.025.684.025h.186c.324 0 .927-.025 1.438-.025-.05.212-.1.473-.119.635h-.13c-.025-.137-.056-.256-.119-.33-.068-.087-.298-.087-.46-.087-.162 0-.267 0-.56.025-.03.1-.037.36-.037.578v.36c.075.013.143.02.261.02h.15c.155 0 .348 0 .423-.087a.722.722 0 00.136-.25h.131c-.025.194-.025.312-.025.442 0 .143 0 .25.025.442h-.15c-.037-.112-.061-.193-.136-.268-.069-.068-.261-.068-.417-.068h-.143v.013zm2.19-.597c0-.217-.013-.429-.063-.547-.037-.087-.167-.093-.366-.143v-.13c.192.018.416.024.659.024.242 0 .466-.006.66-.025v.13c-.2.05-.33.05-.368.144-.056.118-.062.336-.062.547v.355c.106.019.311.025.541.025h.467c.224 0 .43-.006.541-.025v-.355c0-.217-.012-.429-.062-.547-.037-.087-.168-.093-.367-.143v-.13c.193.018.417.024.66.024.242 0 .466-.006.659-.025v.13c-.2.05-.33.05-.367.144-.056.118-.063.336-.063.547v1.083c0 .218.013.423.063.541.037.087.168.112.367.15v.13a7.04 7.04 0 00-.66-.025 7.04 7.04 0 00-.66.025v-.13c.2-.038.33-.07.368-.15.056-.118.062-.323.062-.541v-.467c-.106-.019-.311-.019-.541-.019h-.473c-.23 0-.43.007-.541.02v.466c0 .218.012.423.062.541.037.087.168.112.367.15v.13a7.04 7.04 0 00-.66-.025 7.04 7.04 0 00-.659.025v-.13c.2-.038.33-.07.367-.15.056-.118.063-.323.063-.541v-1.083h.006zm3.745 0c0-.217-.013-.429-.063-.547-.037-.087-.168-.093-.367-.143v-.13c.193.018.417.024.66.024.242 0 .466-.006.66-.025v.13c-.2.05-.33.05-.368.144-.056.118-.062.336-.062.547v.355c.106.019.311.025.541.025h.467c.23 0 .429-.006.54-.025v-.355c0-.217-.011-.429-.061-.547-.038-.087-.168-.093-.367-.143v-.13c.192.018.416.024.66.024.242 0 .466-.006.659-.025v.13c-.2.05-.33.05-.368.144-.056.118-.062.336-.062.547v1.083c0 .218.013.423.063.541.037.087.167.112.367.15v.13a7.04 7.04 0 00-.66-.025 7.04 7.04 0 00-.66.025v-.13c.2-.038.33-.07.368-.15.056-.118.062-.323.062-.541v-.467c-.106-.019-.311-.019-.541-.019h-.467c-.224 0-.43.007-.541.02v.466c0 .218.012.423.062.541.037.087.168.112.367.15v.13a7.04 7.04 0 00-.66-.025 7.04 7.04 0 00-.659.025v-.13c.2-.038.33-.07.367-.15.056-.118.063-.323.063-.541v-1.083zm4.199.343c.062-.013.224-.025.31-.025.604 0 1.176.211 1.176.827 0 .454-.385.765-.983.765-.223 0-.466-.031-.733-.031a7.04 7.04 0 00-.66.025v-.13c.2-.05.33-.07.367-.15.056-.118.062-.323.062-.541v-1.083c0-.217-.012-.423-.062-.54-.037-.088-.168-.1-.367-.15v-.13c.193.018.417.024.66.024.242 0 .516-.006.715-.025v.13c-.2.044-.386.063-.423.15-.056.118-.062.324-.062.541v.343zm0 .709c0 .224 0 .429.05.522.05.093.248.118.385.118.249 0 .547-.118.547-.547 0-.392-.26-.61-.671-.61-.106 0-.224.007-.311.019v.498zm2.009-1.052c0-.217-.013-.429-.062-.547-.038-.087-.168-.093-.367-.143v-.13c.193.018.416.024.66.024.242 0 .466-.006.659-.025v.13c-.2.05-.33.05-.368.144-.056.118-.062.336-.062.547v1.083c0 .218.013.423.063.541.037.087.167.112.367.15v.13a7.04 7.04 0 00-.66-.025 7.04 7.04 0 00-.66.025v-.13c.2-.038.33-.07.368-.15.056-.118.062-.323.062-.541v-1.083zm1.748 0c0-.217-.013-.429-.069-.547-.037-.087-.167-.093-.367-.143v-.13c.193.018.417.024.66.024.243 0 .467-.006.66-.025v.13c-.2.05-.33.05-.368.144-.056.118-.062.336-.062.547v1.12l1.599-1.53a.316.316 0 00-.056-.156c-.044-.062-.174-.08-.373-.13v-.131c.192.019.416.025.659.025.243 0 .466-.006.66-.025v.13c-.2.05-.33.05-.368.144-.056.118-.062.336-.062.547v1.082c0 .218.013.424.062.542.038.087.168.112.367.149v.13a7.04 7.04 0 00-.659-.024 7.04 7.04 0 00-.66.025v-.131c.2-.037.33-.068.368-.15.056-.117.062-.323.062-.54V41.25l-1.599 1.53c0 .05.006.112.056.2.044.074.18.105.38.142v.13a7.04 7.04 0 00-.66-.024 7.04 7.04 0 00-.66.025v-.13c.2-.038.33-.07.368-.15.056-.118.068-.323.068-.541v-1.083h-.006zm2.183-1.791c-.205.249-.572.584-1.082.584-.336 0-.715-.186-.715-.379 0-.106.143-.267.267-.305.106.162.355.336.71.336.26 0 .54-.15.72-.336l.1.1zm3.341 2.115c.012-.218.019-.386.019-.504 0-.112-.019-.274-.063-.348-.055-.081-.23-.119-.429-.162v-.13c.193.024.386.024.572.024.15 0 .318-.019.405-.025.137.367.199.51.342.815l.386.84c.068.15.112.255.155.336h.025c.044-.081.087-.174.143-.299l.336-.728c.143-.31.268-.597.386-.958.112.013.305.02.423.02.186 0 .386-.007.522-.026v.13c-.199.044-.367.082-.423.163-.05.074-.05.292-.05.348 0 .062.013.286.02.448l.037.703c.012.261.043.529.1.647.036.087.167.1.366.149v.13a7.04 7.04 0 00-.66-.024c-.242 0-.516.006-.715.025v-.131c.2-.044.38-.062.423-.15a.708.708 0 00.044-.267c0-.08-.006-.211-.013-.38l-.024-.702c-.007-.15-.025-.336-.025-.485h-.025c-.081.199-.143.354-.2.472l-.428.927c-.187.423-.268.622-.312.722h-.13a11.892 11.892 0 00-.293-.66l-.472-1.02c-.1-.217-.118-.286-.174-.435H90.5c-.013.155-.031.354-.038.541l-.018.597a7.775 7.775 0 00-.013.392c0 .112 0 .23.031.311.038.087.218.106.417.15v.13c-.193-.025-.38-.025-.622-.025-.243 0-.386 0-.579.025v-.13c.2-.05.38-.069.424-.15.062-.118.105-.41.111-.703l.044-.603zm4.79-.261l.46.815h.025l.467-.983c.1-.224.15-.324.15-.417 0-.093-.206-.143-.387-.174v-.131c.2.019.367.025.579.025.174 0 .305-.006.454-.025v.13c-.08.026-.174.05-.249.1-.1.056-.18.261-.348.616l-.597 1.225c-.305.629-.436.71-.716.71a.977.977 0 01-.367-.081c0-.293-.018-.535-.03-.666h.136c.056.137.112.261.168.336.062.093.124.118.193.118.118 0 .211-.087.305-.292l-.772-1.294c-.193-.324-.354-.616-.473-.672a3.158 3.158 0 00-.28-.1v-.13c.168.019.417.025.641.025.193 0 .448-.006.635-.025v.13c-.094.026-.268.069-.268.175-.018.08.075.23.274.585zm2.06 1.76c.061-.435.061-.566.067-.759h.144c.018.13.05.311.13.442.062.106.299.236.566.236.442 0 .66-.18.66-.597 0-.386-.299-.61-.728-.61-.087 0-.236.007-.355.019.013-.062.019-.162.019-.236.062.006.193.006.261.006.56 0 .684-.33.684-.517 0-.379-.242-.454-.479-.454-.143 0-.404.063-.478.144-.1.105-.156.255-.218.404h-.143c.018-.224.025-.392.025-.635.23-.018.472-.124.852-.124.498 0 .92.205.92.672 0 .398-.472.553-.678.597v.019c.268.024.822.13.822.765 0 .56-.566.777-1.164.777-.354-.018-.61-.124-.908-.149zm3.707-1.225c-.119 0-.181.006-.262.018v.467c0 .218.007.385.025.547a3.3 3.3 0 00.535.031c.162 0 .429-.012.523-.074.099-.063.193-.193.305-.436h.143a5.06 5.06 0 00-.112.747 17.8 17.8 0 00-1.095-.025h-.51c-.137 0-.504.006-.697.025v-.131c.2-.05.324-.068.367-.15.062-.117.062-.323.062-.54v-1.083c0-.218-.012-.423-.062-.541-.037-.087-.168-.1-.367-.15v-.13c.193.019.547.025.684.025h.187c.323 0 .927-.025 1.437-.025-.05.212-.1.473-.118.635h-.131c-.025-.137-.056-.256-.118-.33-.069-.087-.299-.087-.46-.087-.162 0-.268 0-.56.025-.031.1-.038.36-.038.578v.36c.075.013.143.02.262.02h.149c.155 0 .348 0 .423-.087a.734.734 0 00.137-.25h.13c-.024.194-.024.312-.024.442 0 .143 0 .25.024.442h-.13c-.038-.112-.062-.193-.137-.268-.069-.068-.268-.068-.417-.068h-.155v.013zm2.189-.598c0-.217-.012-.429-.068-.547-.037-.087-.168-.093-.367-.143v-.13c.193.018.417.024.659.024.243 0 .467-.006.66-.025v.13c-.199.05-.33.05-.367.144-.056.118-.063.336-.063.547v1.12l1.599-1.53a.277.277 0 00-.062-.156c-.044-.062-.174-.08-.373-.13v-.131c.193.019.417.025.659.025.243 0 .467-.006.66-.025v.13c-.2.05-.33.05-.367.144-.056.118-.069.336-.069.547v1.082c0 .218.013.424.069.542.037.087.167.112.367.149v.13a7.05 7.05 0 00-.66-.024c-.242 0-.466.006-.659.025v-.131c.199-.037.329-.068.367-.15.056-.117.062-.323.062-.54V41.25l-1.599 1.53c0 .05.006.112.056.2.044.074.181.105.38.142v.13a7.05 7.05 0 00-.66-.024c-.242 0-.466.006-.659.025v-.13c.199-.038.33-.07.367-.15.056-.118.068-.323.068-.541v-1.083zm2.184-1.791c-.205.249-.572.584-1.083.584-.336 0-.715-.186-.715-.379 0-.106.143-.267.268-.305.105.162.354.336.709.336.261 0 .541-.15.721-.336l.1.1zm-65.679 7.714c0-.218-.012-.43-.068-.548-.038-.087-.168-.093-.367-.143v-.13c.193.018.416.024.659.024.243 0 .467-.006.66-.025v.131c-.2.05-.33.056-.368.143-.056.118-.062.336-.062.548v1.126l1.599-1.53a.315.315 0 00-.056-.156c-.044-.063-.174-.081-.373-.131v-.13c.193.018.416.024.66.024.242 0 .466-.006.658-.025v.131c-.199.05-.33.056-.367.143-.055.118-.062.336-.062.548v1.082c0 .218.013.423.063.541.037.087.167.112.366.15v.13a7.04 7.04 0 00-.659-.025 7.04 7.04 0 00-.66.025v-.13c.2-.038.33-.063.368-.15.056-.118.062-.323.062-.541v-1.176l-1.599 1.53c0 .05.006.113.056.2.044.074.18.105.38.143v.13a7.04 7.04 0 00-.66-.025c-.242 0-.466.007-.66.025v-.13c.2-.038.33-.063.368-.15.056-.118.068-.323.068-.54v-1.09h-.006zm3.421 1.816c.063-.435.063-.566.069-.759h.143c.019.13.05.311.13.442.063.105.3.236.567.236.441 0 .66-.186.66-.597 0-.386-.3-.61-.729-.61-.087 0-.236.007-.354.019.012-.062.018-.162.025-.236.056.006.192.006.26.006.56 0 .685-.33.685-.517 0-.379-.242-.454-.479-.454-.143 0-.404.063-.479.137-.1.106-.155.255-.218.404h-.136c.018-.23.024-.391.024-.64.23-.019.473-.125.853-.125.497 0 .92.206.92.672 0 .398-.472.554-.678.597v.02c.268.024.822.13.822.764 0 .56-.567.778-1.17.778-.367 0-.616-.106-.915-.137zm4.137-2.694c.97 0 1.419.716 1.419 1.419 0 .808-.772 1.412-1.53 1.412-.971 0-1.419-.796-1.419-1.5.006-.808.778-1.33 1.53-1.33zm-1.02 1.282c0 .647.268 1.325.964 1.325.647 0 .965-.48.965-1.126 0-.647-.268-1.244-.965-1.244-.64-.007-.964.398-.964 1.045zm3.813-.044c.069-.012.255-.018.349-.018.603 0 1.175.242 1.175.802 0 .454-.385.765-.982.765-.224 0-.504-.03-.766-.03a7.04 7.04 0 00-.659.024v-.13c.2-.05.33-.063.367-.15.056-.118.062-.323.062-.541v-1.082c0-.218-.012-.423-.062-.542-.037-.087-.168-.1-.367-.149v-.13c.193.018.417.024.66.024h.217c.324 0 .821-.025 1.325-.025a7.246 7.246 0 00-.062.66h-.13c-.05-.156-.1-.274-.162-.349-.069-.087-.299-.087-.405-.087-.105 0-.273 0-.516.019-.031.1-.037.367-.037.585v.354h-.007zm0 .69c0 .231 0 .43.05.523.05.094.28.119.423.119.249 0 .548-.119.548-.554 0-.367-.262-.591-.672-.591-.106 0-.261.006-.349.025v.479zm2.893.032c0 .218.012.423.062.541.038.087.224.106.473.15v.13a10.573 10.573 0 00-1.425 0v-.13c.2-.05.33-.063.367-.15.056-.118.063-.323.063-.541v-1.082c0-.218-.013-.423-.063-.542-.037-.087-.167-.1-.367-.149v-.13c.193.018.392.024.585.024.187 0 .554-.043.697-.043.703 0 1.076.33 1.076.846 0 .479-.398.833-.995.833-.106 0-.305-.03-.367-.062v-.13c.056.012.186.018.292.018.498 0 .56-.423.56-.634 0-.585-.355-.666-.566-.666a1.7 1.7 0 00-.38.037c-.018.137-.018.374-.018.585v1.095h.006zm3.59-.006c-.137-.013-.256-.013-.392-.013h-.162c-.143 0-.305 0-.436.013l-.112.286a.861.861 0 00-.074.249c0 .1.199.13.373.174v.118a4.686 4.686 0 00-.616-.031c-.224 0-.348.019-.46.031v-.118a.967.967 0 00.286-.087c.106-.062.174-.237.236-.392l.89-2.177h.13l.952 2.208c.063.15.106.261.168.317.063.062.18.106.311.13v.12a6.526 6.526 0 00-.553-.026c-.343 0-.56.013-.685.025v-.118c.156-.031.361-.075.361-.174 0-.063-.056-.175-.087-.243l-.13-.292zm-.392-.23c.143 0 .223 0 .298-.013l-.398-.964h-.025l-.386.964c.081.013.206.013.349.013h.162zm1.797.97c.063-.435.063-.566.069-.759h.137c.018.13.05.311.13.442.063.105.299.236.566.236.442 0 .66-.186.66-.597 0-.386-.299-.61-.728-.61-.087 0-.237.007-.355.019.013-.062.019-.162.025-.236.056.006.193.006.262.006.56 0 .684-.33.684-.517 0-.379-.243-.454-.48-.454-.142 0-.404.063-.478.137-.1.106-.156.255-.218.404h-.143c.019-.23.025-.391.025-.64.23-.019.473-.125.852-.125.498 0 .92.206.92.672 0 .398-.472.554-.677.597v.02c.267.024.82.13.82.764 0 .56-.565.778-1.169.778-.348 0-.603-.106-.902-.137zm2.992-1.816c0-.218-.012-.43-.062-.548-.037-.087-.168-.093-.367-.143v-.13c.193.018.417.024.66.024.242 0 .466-.006.66-.025v.131c-.2.05-.33.056-.368.143-.056.118-.062.336-.062.548v1.126l1.599-1.53a.238.238 0 00-.063-.156c-.043-.063-.174-.081-.373-.131v-.13c.193.018.417.024.66.024.242 0 .466-.006.659-.025v.131c-.2.05-.33.056-.367.143-.056.118-.069.336-.069.548v1.082c0 .218.013.423.069.541.037.087.168.112.367.15v.13a7.04 7.04 0 00-.66-.025 7.04 7.04 0 00-.659.025v-.13c.2-.038.33-.063.367-.15.056-.118.062-.323.062-.541v-1.176l-1.598 1.53c0 .05.006.113.056.2.043.074.18.105.38.143v.13a7.04 7.04 0 00-.66-.025 7.04 7.04 0 00-.66.025v-.13c.2-.038.33-.063.367-.15.056-.118.063-.323.063-.54v-1.09zm4.287 0a5.83 5.83 0 00-.025-.573c-.1-.012-.25-.012-.342-.012-.094 0-.268.006-.38.087-.087.062-.124.174-.193.367h-.137c.032-.218.056-.48.063-.703.192.019.497.031.82.031h.84c.324 0 .58-.012.884-.031-.044.274-.069.423-.1.703h-.143c-.018-.13-.062-.317-.136-.38-.069-.062-.18-.074-.386-.074-.062 0-.224 0-.286.012a4.292 4.292 0 00-.031.573v1.082c0 .218.012.423.062.541.037.087.224.106.423.15v.13a8.251 8.251 0 00-.716-.025c-.242 0-.516.006-.715.025v-.13c.199-.044.386-.063.423-.15.056-.118.062-.323.062-.541v-1.082h.013zm2.948.59c-.118 0-.18.007-.261.02v.472c0 .218.006.38.025.547.124.025.336.031.535.031.162 0 .43-.012.522-.074.1-.062.193-.193.305-.43h.143a5.154 5.154 0 00-.112.747 17.783 17.783 0 00-1.094-.025h-.517c-.137 0-.504.006-.697.025v-.13c.2-.05.324-.063.367-.15.056-.118.063-.323.063-.541v-1.082c0-.218-.013-.423-.063-.542-.037-.087-.168-.1-.367-.149v-.13c.193.018.554.024.685.024h.186c.324 0 .927-.025 1.437-.025-.05.212-.1.473-.118.635h-.13c-.025-.137-.056-.255-.119-.33-.068-.087-.298-.087-.46-.087-.162 0-.267 0-.56.019-.031.1-.037.36-.037.578v.361c.074.013.15.019.261.019h.15c.155 0 .348 0 .422-.087a.721.721 0 00.137-.25h.13a4.28 4.28 0 00-.005.884h-.131c-.037-.112-.062-.193-.137-.267-.068-.069-.261-.069-.417-.069h-.143v.006zm3.69-.323c0-.261 0-.71-.032-.84-.093-.006-.15-.012-.274-.012h-.1c-.136 0-.273.006-.354.062-.068.056-.093.205-.137.498-.024.193-.056.38-.1.647-.055.342-.111.597-.23.877-.13.298-.36.454-.59.454-.143 0-.336-.174-.336-.336 0-.162.186-.293.317-.293.062.137.143.225.218.225.093 0 .18-.106.249-.3.093-.242.168-.677.224-1.038.024-.193.055-.398.055-.516 0-.137-.024-.218-.074-.268-.069-.062-.23-.1-.386-.13v-.144c.193.02.41.032.653.032H71.9c.242 0 .46-.013.653-.032v.144c-.2.05-.33.062-.367.149-.056.118-.063.541-.063.809v.54c0 .275.013.691.063.81.037.087.168.105.367.149v.137a6.287 6.287 0 00-.635-.031c-.242 0-.491.018-.684.03v-.136c.199-.05.33-.063.367-.15.056-.118.062-.54.062-.808v-.529zm2.201.075c.063-.013.23-.025.324-.025.603 0 1.176.211 1.176.827 0 .454-.386.765-.983.765-.224 0-.48-.03-.747-.03a7.04 7.04 0 00-.66.024v-.13c.2-.05.33-.063.368-.15.056-.118.062-.323.062-.541v-1.082c0-.218-.013-.423-.062-.542-.038-.087-.168-.1-.367-.149v-.13c.193.018.416.024.66.024.242 0 .516-.006.708-.025v.131c-.199.043-.385.062-.423.15-.056.117-.062.323-.062.54v.343h.006zm0 .709c0 .23 0 .429.05.522.05.094.261.119.398.119.249 0 .548-.119.548-.554 0-.386-.262-.61-.672-.61a2.6 2.6 0 00-.324.019v.504zm2.333-1.051c0-.218-.012-.43-.062-.548-.037-.087-.168-.093-.367-.143v-.13c.193.018.417.024.66.024.242 0 .466-.006.659-.025v.131c-.2.05-.33.056-.367.143-.056.118-.063.336-.063.548v.354c.106.019.311.019.542.019h.466c.224 0 .43-.007.541-.019v-.354c0-.218-.012-.43-.062-.548-.037-.087-.168-.093-.367-.143v-.13c.193.018.417.024.66.024.242 0 .466-.006.659-.025v.131c-.2.05-.33.056-.367.143-.056.118-.069.336-.069.548v1.082c0 .218.013.423.069.541.037.087.168.112.367.15v.13a7.04 7.04 0 00-.66-.025 7.04 7.04 0 00-.659.025v-.13c.2-.038.33-.063.367-.15.056-.118.062-.323.062-.541v-.467c-.105-.018-.31-.018-.54-.018H77.2c-.224 0-.43.006-.542.018v.467c0 .218.013.423.063.541.037.087.168.112.367.15v.13a7.04 7.04 0 00-.66-.025 7.04 7.04 0 00-.66.025v-.13c.2-.038.33-.063.368-.15.056-.118.062-.323.062-.541v-1.082zm4.2.342c.068-.013.223-.025.31-.025.604 0 1.176.211 1.176.827 0 .454-.386.765-.983.765-.224 0-.467-.03-.734-.03a7.04 7.04 0 00-.66.024v-.13c.2-.05.33-.063.368-.15.055-.118.062-.323.062-.541v-1.082c0-.218-.013-.423-.062-.542-.038-.087-.168-.1-.368-.149v-.13c.193.018.417.024.66.024.242 0 .516-.006.715-.025v.131c-.199.043-.385.062-.423.15-.056.117-.068.323-.068.54v.343h.006zm0 .709c0 .23 0 .429.049.522.05.094.249.119.386.119.248 0 .547-.119.547-.554 0-.386-.261-.61-.672-.61-.106 0-.23.007-.31.019v.504zm2.008-1.051c0-.218-.012-.43-.062-.548-.037-.087-.168-.093-.367-.143v-.13c.193.018.417.024.66.024.242 0 .466-.006.659-.025v.131c-.2.05-.33.056-.367.143-.056.118-.062.336-.062.548v1.082c0 .218.012.423.062.541.037.087.168.112.367.15v.13a7.04 7.04 0 00-.66-.025 7.04 7.04 0 00-.659.025v-.13c.2-.038.33-.063.367-.15.056-.118.062-.323.062-.541v-1.082zm3.422 1.057c.298.392.404.554.485.603.08.056.205.075.323.106v.13a5.926 5.926 0 00-.628-.024c-.286 0-.59.006-.74.025v-.13c.106-.02.355-.082.355-.163 0-.062-.137-.242-.237-.379l-.373-.504-.311.442c-.143.211-.261.354-.261.435 0 .075.224.13.36.162v.13a9.214 9.214 0 00-.665-.024c-.268 0-.405.006-.579.025v-.131c.1-.025.261-.062.386-.106.211-.08.404-.386.597-.64l.342-.473-.634-.846c-.112-.15-.18-.268-.305-.311-.1-.032-.23-.063-.336-.087v-.131c.15.012.36.031.628.031.274 0 .523-.025.678-.031v.13c-.105.02-.255.075-.255.131 0 .069.069.143.255.398l.243.33.243-.348c.136-.2.211-.305.211-.38 0-.062-.143-.106-.267-.13v-.131c.13.006.242.025.516.025.261 0 .448-.013.579-.025v.13c-.106.02-.268.05-.399.094-.13.043-.23.187-.429.479l-.323.46.54.728zm3.129-1.057c0-.218-.013-.43-.062-.548-.038-.087-.168-.093-.367-.143v-.13c.192.018.416.024.659.024.243 0 .467-.006.66-.025v.131c-.2.05-.33.056-.368.143-.056.118-.062.336-.062.548v1.126l1.599-1.53a.275.275 0 00-.062-.156c-.044-.063-.174-.081-.373-.131v-.13c.192.018.416.024.659.024.243 0 .466-.006.66-.025v.131c-.2.05-.33.056-.368.143-.056.118-.062.336-.062.548v1.082c0 .218.013.423.062.541.038.087.168.112.367.15v.13a7.04 7.04 0 00-.66-.025 7.04 7.04 0 00-.659.025v-.13c.2-.038.33-.063.368-.15.056-.118.068-.323.068-.541v-1.176l-1.599 1.53c0 .05.006.113.056.2.044.074.18.105.38.143v.13a7.04 7.04 0 00-.66-.025c-.242 0-.466.007-.66.025v-.13c.2-.038.33-.063.368-.15.056-.118.062-.323.062-.54v-1.09h-.006zm4.977 1.953c-.921 0-1.55-.548-1.55-1.387 0-.89.629-1.444 1.55-1.444.373 0 .61.112.951.162a4.51 4.51 0 00-.087.628h-.13c-.063-.199-.137-.367-.224-.435-.106-.08-.293-.137-.542-.137-.634 0-1.007.491-1.007 1.145 0 .672.336 1.25 1.076 1.25a.921.921 0 00.56-.168c.105-.08.217-.286.286-.46h.13c-.03.174-.062.33-.105.672-.342.087-.61.174-.909.174zm2.357-.871c0 .218.013.423.069.541.037.087.168.106.367.15v.13a7.87 7.87 0 00-.66-.025c-.186 0-.466.006-.66.025v-.13c.2-.05.33-.063.368-.15.056-.118.062-.323.062-.541v-1.082c0-.218-.012-.423-.062-.542-.038-.087-.168-.1-.367-.149v-.13a7.91 7.91 0 001.263 0v.13c-.2.05-.274.062-.311.15-.056.117-.069.323-.069.54v1.083zm.062-.603l.722-.679c.249-.236.33-.323.33-.379 0-.056-.131-.087-.293-.112v-.13a5.986 5.986 0 001.07 0v.13c-.348.056-.373.118-.79.491l-.59.53.864.939c.317.342.404.404.684.503v.131a3.378 3.378 0 00-.417-.025c-.105 0-.199.006-.342.025-.174-.211-.292-.348-.398-.479l-.84-.945zm3.353-.417l.461.815h.025l.466-.983c.1-.224.149-.324.149-.417 0-.093-.205-.143-.385-.174v-.13c.199.018.367.024.578.024.174 0 .305-.006.454-.025v.13a.93.93 0 00-.248.1c-.1.056-.181.262-.349.616l-.597 1.226c-.305.628-.436.709-.71.709a.978.978 0 01-.366-.081c0-.292-.019-.535-.031-.666h.136c.056.137.112.262.168.336.063.094.125.118.193.118.118 0 .212-.087.305-.292l-.771-1.294c-.193-.323-.355-.616-.473-.672a3.154 3.154 0 00-.28-.1v-.13c.168.019.417.025.64.025.194 0 .449-.006.635-.025v.13c-.093.02-.267.07-.267.175-.025.08.068.23.267.585zm3.608 1.89c-.92 0-1.549-.547-1.549-1.386 0-.89.635-1.444 1.549-1.444.374 0 .61.112.952.162a4.605 4.605 0 00-.087.628h-.131c-.062-.199-.143-.367-.224-.435-.105-.08-.292-.137-.541-.137-.634 0-1.007.491-1.007 1.145 0 .672.335 1.25 1.076 1.25a.922.922 0 00.56-.168c.105-.08.217-.286.286-.46h.13c-.031.174-.062.33-.105.672-.336.087-.604.174-.909.174zm3.08 0c-.921 0-1.549-.547-1.549-1.386 0-.89.634-1.444 1.549-1.444.373 0 .609.112.951.162a4.605 4.605 0 00-.087.628h-.13c-.063-.199-.143-.367-.224-.435-.106-.08-.293-.137-.541-.137-.635 0-1.008.491-1.008 1.145 0 .672.336 1.25 1.076 1.25a.922.922 0 00.56-.168c.106-.08.218-.286.286-.46h.131c-.031.174-.069.33-.106.672-.342.087-.604.174-.908.174zm2.388-1.952a5.83 5.83 0 00-.024-.573c-.1-.012-.249-.012-.343-.012-.093 0-.261.006-.379.087-.087.062-.125.174-.193.367h-.137c.031-.218.056-.48.062-.703a9.3 9.3 0 00.822.031h.839c.324 0 .579-.012.884-.031-.044.274-.075.423-.1.703h-.143c-.019-.13-.062-.317-.137-.38-.068-.062-.18-.074-.385-.074-.063 0-.224 0-.287.012a5.875 5.875 0 00-.031.573v1.082c0 .218.013.423.063.541.037.087.223.106.423.15v.13a8.358 8.358 0 00-.716-.025 8.44 8.44 0 00-.715.025v-.13c.199-.044.385-.063.423-.15.056-.118.062-.323.062-.541v-1.082h.012zm3.08-.834c.392 0 .927.112.927.622 0 .392-.442.547-.672.597v.019c.566.08.883.342.883.753 0 .398-.292.752-1.045.752-.224 0-.448-.03-.765-.03a5.79 5.79 0 00-.604.024v-.13c.199-.05.324-.119.367-.206.056-.118.063-.267.063-.485v-1.082c0-.218-.007-.423-.063-.542-.043-.087-.168-.1-.367-.149v-.13c.193.018.361.024.604.024.186 0 .404-.037.672-.037zm-.193 1.163c.261 0 .634-.13.634-.51 0-.398-.336-.448-.51-.448-.074 0-.217.006-.286.025-.025.112-.031.386-.031.604v.323a2 2 0 00.193.006zm-.199.753c0 .218.006.43.043.504.05.106.311.118.448.118.355 0 .535-.23.535-.554 0-.385-.292-.622-.753-.622-.074 0-.205 0-.267.007v.547h-.006zm-71.962 4.84c0-.218-.012-.43-.068-.548-.038-.087-.168-.093-.367-.143v-.13c.193.018.416.024.659.024.243 0 .467-.006.66-.024v.13c-.2.05-.33.056-.368.143-.056.118-.062.336-.062.548v1.12l1.599-1.53a.315.315 0 00-.056-.156c-.044-.063-.174-.081-.373-.131v-.13c.193.018.416.024.66.024.242 0 .466-.006.658-.025v.13c-.199.05-.33.057-.367.144-.055.118-.062.336-.062.547v1.083c0 .218.013.423.063.541.037.087.167.112.366.15v.13a7.04 7.04 0 00-.659-.025 7.04 7.04 0 00-.66.025v-.13c.2-.038.33-.063.368-.15.056-.118.062-.323.062-.541v-1.176l-1.599 1.53c0 .05.006.112.056.2.044.074.18.105.38.143v.13a7.075 7.075 0 00-.66-.025c-.242 0-.466.007-.66.025v-.13c.2-.038.33-.063.368-.15.056-.118.068-.323.068-.54v-1.083h-.006zm3.9.323c.013-.224.025-.386.025-.504 0-.112-.018-.273-.068-.348-.056-.081-.224-.118-.43-.162v-.13c.194.024.386.024.573.024.15 0 .317-.018.404-.024.137.367.2.51.336.814l.386.84c.068.15.112.255.155.336h.025a2.75 2.75 0 00.137-.298l.336-.728a8.06 8.06 0 00.386-.958c.112.012.31.018.423.018.187 0 .386-.006.522-.024v.13c-.199.044-.367.081-.423.162-.05.075-.05.292-.05.348 0 .063.013.286.02.448l.037.703c.012.268.043.529.1.647.037.087.167.1.366.15v.13a7.04 7.04 0 00-.66-.025 8.44 8.44 0 00-.715.025v-.13c.2-.044.38-.063.423-.15a.71.71 0 00.044-.267c0-.081-.006-.212-.012-.38l-.025-.703c-.007-.15-.025-.336-.025-.485h-.025a8.985 8.985 0 01-.2.467l-.428.926a12.59 12.59 0 00-.305.722h-.13a12.4 12.4 0 00-.293-.66l-.473-1.02c-.1-.217-.118-.286-.174-.435h-.025c-.013.156-.031.348-.037.541l-.02.597a7.775 7.775 0 00-.011.392c0 .112 0 .23.03.305.038.087.218.106.417.15v.13c-.193-.025-.38-.025-.622-.025s-.385 0-.578.025v-.13c.199-.05.38-.063.423-.15.062-.118.1-.41.112-.703l.05-.59zm4.81.268c-.12 0-.188.006-.262.018v.467c0 .218.006.386.025.547.124.025.342.031.535.031.162 0 .429-.012.522-.074.1-.063.193-.193.311-.436h.137a5.154 5.154 0 00-.112.747 17.784 17.784 0 00-1.095-.025h-.516c-.137 0-.504.006-.697.025v-.13c.2-.05.324-.063.367-.15.056-.118.063-.324.063-.541V53.18c0-.217-.013-.423-.063-.541-.037-.087-.168-.1-.367-.15v-.13c.193.019.548.025.685.025h.186c.324 0 .927-.025 1.437-.025-.05.212-.1.473-.118.635h-.13c-.02-.119-.044-.243-.106-.318-.069-.087-.299-.087-.46-.087-.163 0-.268 0-.56.025-.032.1-.038.36-.038.579v.36c.075.013.143.02.261.02h.15c.155 0 .348 0 .423-.088a.627.627 0 00.13-.249h.13c-.024.193-.024.311-.024.442 0 .137 0 .249.025.442h-.13c-.038-.112-.063-.193-.138-.268-.068-.068-.267-.068-.416-.068h-.156zm2.189-.591c0-.218-.013-.43-.069-.548-.037-.087-.168-.093-.367-.143v-.13c.193.018.417.024.66.024.242 0 .466-.006.66-.024v.13c-.2.05-.33.056-.368.143-.056.118-.062.336-.062.548v.354c.106.019.311.019.541.019h.467a5.6 5.6 0 00.54-.019v-.354c0-.218-.011-.43-.061-.548-.038-.087-.168-.093-.367-.143v-.13c.192.018.416.024.66.024.242 0 .466-.006.659-.024v.13c-.2.05-.33.056-.367.143-.056.118-.063.336-.063.548v1.082c0 .218.013.423.063.541.037.087.167.112.367.15v.13a7.074 7.074 0 00-.66-.025 7.31 7.31 0 00-.66.025v-.13c.2-.038.33-.063.368-.15.056-.118.062-.323.062-.54v-.468a3.913 3.913 0 00-.541-.024h-.467c-.224 0-.43.006-.541.025v.466c0 .218.012.423.062.541.038.087.168.112.367.15v.13a7.075 7.075 0 00-.66-.025c-.242 0-.466.007-.659.025v-.13c.2-.038.33-.063.367-.15.056-.118.069-.323.069-.54v-1.083zm3.751 0c0-.218-.013-.43-.062-.548-.038-.087-.168-.093-.367-.143v-.13c.193.018.416.024.66.024.242 0 .466-.006.658-.024v.13c-.198.05-.33.056-.366.143-.056.118-.069.336-.069.548v1.12l1.599-1.53a.316.316 0 00-.056-.156c-.044-.063-.174-.081-.373-.131v-.13c.192.018.416.024.659.024.243 0 .466-.006.66-.025v.13c-.2.05-.33.057-.368.144-.056.118-.062.336-.062.547v1.083c0 .218.013.423.062.541.038.087.168.112.367.15v.13a7.04 7.04 0 00-.659-.025 7.04 7.04 0 00-.66.025v-.13c.2-.038.33-.063.368-.15.056-.118.062-.323.062-.541v-1.176l-1.599 1.53c0 .05.006.112.056.2.044.074.18.105.38.143v.13a7.074 7.074 0 00-.66-.025c-.242 0-.466.007-.66.025v-.13c.2-.038.33-.063.368-.15.056-.118.062-.323.062-.54v-1.083zm7.222.54c-.137-.012-.274-.012-.416-.012h-.442c-.137 0-.249 0-.386.013l-.255.709c-.068.2-.106.28-.106.348 0 .106.23.137.398.18v.131a8.476 8.476 0 00-.703-.03c-.224 0-.391.024-.503.03v-.13c.112-.019.236-.044.317-.1.106-.068.211-.261.305-.497l1.188-3.154h.143l1.263 3.19c.1.237.124.35.218.418a.995.995 0 00.342.143v.13a7.085 7.085 0 00-.585-.03c-.349 0-.66.024-.784.03v-.13c.156-.031.386-.087.386-.193 0-.087-.056-.193-.106-.317l-.274-.728zm-.41-.254c.143 0 .23 0 .31-.019l-.522-1.35h-.025l-.491 1.356c.08.013.143.013.286.013h.442zm2.532 1.026c.149 0 .323.174.323.324 0 .149-.174.323-.324.323-.149 0-.323-.174-.323-.323 0-.15.174-.324.324-.324zm3.06.653c-1.194 0-2.034-.771-2.034-1.934 0-1.213.852-1.99 2.04-1.99.641 0 .877.167 1.27.204a4.365 4.365 0 00-.088.778h-.143c-.068-.243-.155-.479-.261-.56-.156-.124-.535-.174-.834-.174-.939 0-1.424.74-1.424 1.66 0 .89.516 1.774 1.561 1.774.274 0 .653-.1.796-.237.106-.1.237-.379.305-.547h.143c-.025.18-.074.51-.105.796-.46.125-.828.23-1.226.23zm2.34-.653c.148 0 .323.174.323.324 0 .149-.175.323-.324.323-.15 0-.323-.174-.323-.323 0-.15.174-.324.323-.324zm1.455-2.121c0-.267 0-.672-.075-.79-.056-.08-.211-.124-.41-.174v-.143c.192.018.497.03.74.03h2.805c.243 0 .548-.018.74-.03v.143c-.198.05-.354.093-.41.174-.075.118-.075.516-.075.79v1.617c0 .268 0 .672.075.79.056.081.212.125.41.175v.136a8.836 8.836 0 00-1.48 0v-.136c.2-.05.355-.094.41-.175.075-.118.075-.516.075-.79v-2.42a3.899 3.899 0 00-.54-.024h-1.22c-.224 0-.43.006-.541.025v2.42c0 .267 0 .671.074.79.056.08.212.124.41.174v.136a8.834 8.834 0 00-1.48 0v-.136c.2-.05.355-.094.41-.175.076-.118.076-.516.076-.79v-1.617h.006zm5.418.87l.46.816h.025l.467-.983c.106-.224.15-.324.15-.417 0-.093-.206-.143-.386-.174v-.13c.198.018.367.024.578.024.174 0 .299-.006.454-.025v.13c-.08.026-.174.057-.249.1-.1.057-.18.268-.348.616l-.597 1.226c-.305.622-.436.709-.716.709a.977.977 0 01-.367-.08c0-.293-.018-.536-.03-.666h.136c.056.136.112.26.168.335.062.094.124.119.193.119.118 0 .211-.087.305-.293l-.772-1.294c-.192-.323-.354-.615-.472-.672a3.158 3.158 0 00-.28-.1v-.13c.168.019.416.025.634.025.193 0 .448-.006.628-.025v.13c-.093.026-.267.07-.267.175-.006.081.087.23.286.585zm6.065 1.015c0 .218.013.435.063.547.037.087.167.1.367.143v.131a7.04 7.04 0 00-.66-.025h-3.172a7.04 7.04 0 00-.66.025v-.13c.2-.044.33-.057.367-.144.056-.118.062-.336.062-.547v-1.083c0-.217-.012-.423-.062-.54-.037-.088-.168-.113-.367-.15v-.13c.193.018.417.024.66.024.242 0 .466-.006.659-.025v.13c-.2.038-.33.07-.367.15-.056.118-.062.324-.062.541v1.643c.105.012.31.018.54.018h.592v-1.66c0-.218-.013-.424-.062-.542-.038-.087-.168-.112-.367-.15v-.13c.193.019.416.025.66.025.242 0 .466-.006.658-.025v.13c-.199.038-.33.07-.366.15-.056.118-.063.324-.063.541v1.661h.591c.23 0 .436-.006.541-.018v-1.643c0-.217-.012-.423-.062-.54-.037-.088-.168-.113-.367-.15v-.13c.193.018.417.024.66.024.242 0 .466-.006.659-.025v.13c-.2.038-.33.07-.367.15-.056.118-.062.324-.062.541v1.083h-.013zm1.748 0c0 .218.013.423.063.541.037.087.168.1.367.15v.13a7.772 7.772 0 00-.66-.025c-.186 0-.466.006-.66.025v-.13c.2-.05.33-.063.368-.15.056-.118.062-.323.062-.541v-1.083c0-.217-.012-.423-.062-.54-.038-.088-.168-.1-.367-.15v-.13a7.77 7.77 0 001.263 0v.13c-.2.05-.274.068-.311.15-.056.117-.063.323-.063.54v1.083zm.063-.597l.721-.678c.249-.237.33-.324.33-.38 0-.056-.13-.087-.293-.112v-.13a5.956 5.956 0 001.07 0v.13c-.348.056-.373.118-.79.492l-.59.528.864.94c.317.348.405.404.684.504v.13a3.397 3.397 0 00-.416-.025c-.106 0-.2.007-.343.025-.174-.211-.292-.348-.398-.473l-.84-.951zm2.656-.48c0-.217-.013-.429-.062-.547-.038-.087-.168-.093-.367-.143v-.13c.192.018.416.024.659.024.243 0 .466-.006.66-.024v.13c-.2.05-.33.056-.368.143-.056.118-.062.336-.062.548v1.12l1.599-1.53a.238.238 0 00-.062-.156c-.044-.063-.175-.081-.374-.131v-.13c.193.018.417.024.66.024.242 0 .466-.006.66-.025v.13c-.2.05-.33.057-.368.144-.056.118-.062.336-.062.547v1.083c0 .218.013.423.062.541.037.087.168.112.367.15v.13a7.038 7.038 0 00-.66-.025 7.04 7.04 0 00-.659.025v-.13c.2-.038.33-.063.367-.15.056-.118.063-.323.063-.541v-1.176l-1.6 1.53c0 .05.007.112.057.2.044.074.18.105.38.143v.13a7.075 7.075 0 00-.66-.025c-.243 0-.467.007-.66.025v-.13c.2-.038.33-.063.368-.15.056-.118.062-.323.062-.54v-1.083zm3.8 0c0-.217-.012-.429-.061-.547-.038-.087-.169-.093-.368-.143v-.13c.193.018.417.024.66.024.243 0 .466-.006.66-.024v.13c-.2.05-.33.056-.368.143-.056.118-.062.336-.062.548v.354c.106.019.311.019.541.019h.467c.23 0 .429-.006.541-.019v-.354c0-.218-.012-.43-.062-.548-.038-.087-.168-.093-.367-.143v-.13c.193.018.417.024.66.024.242 0 .466-.006.659-.024v.13c-.2.05-.33.056-.368.143-.055.118-.062.336-.062.548v1.082c0 .218.013.423.063.541.037.087.168.112.367.15v.13a7.075 7.075 0 00-.66-.025c-.242 0-.466.007-.66.025v-.13c.2-.038.33-.063.368-.15.056-.118.062-.323.062-.54v-.468a3.913 3.913 0 00-.541-.024h-.467c-.23 0-.429.006-.541.025v.466c0 .218.013.423.062.541.038.087.168.112.367.15v.13a7.075 7.075 0 00-.66-.025c-.242 0-.466.007-.659.025v-.13c.2-.038.33-.063.368-.15.055-.118.062-.323.062-.54v-1.083zm5.04 1.077c-.137-.013-.256-.013-.392-.013h-.162c-.143 0-.305 0-.436.013l-.112.286a.808.808 0 00-.074.249c0 .106.199.13.373.174v.118a4.702 4.702 0 00-.616-.03c-.224 0-.348.018-.46.03v-.118c.1-.019.205-.044.286-.087.106-.062.174-.236.236-.386l.89-2.183h.13l.952 2.208c.063.143.106.261.168.317.056.063.18.1.311.131v.118a6.57 6.57 0 00-.553-.025c-.349 0-.56.013-.685.025v-.118c.156-.031.361-.075.361-.174 0-.062-.056-.174-.087-.243l-.13-.292zm-.399-.23c.143 0 .224 0 .299-.013l-.398-.964h-.025l-.386.964c.081.013.206.013.349.013h.161z" fill="#76777A"/><defs><linearGradient id="paint0_linear" x1="66.034" y1="12.988" x2="105.807" y2="12.988" gradientUnits="userSpaceOnUse"><stop stop-color="#B8B8B8"/><stop offset="1" stop-color="#98989A"/></linearGradient><linearGradient id="paint1_linear" x1="0" y1="12.988" x2="39.773" y2="12.988" gradientUnits="userSpaceOnUse"><stop stop-color="#BFBFBF"/><stop offset="1" stop-color="#979797"/></linearGradient></defs></svg>