<svg width="154" height="20" viewBox="0 0 154 20" fill="none" xmlns="http://www.w3.org/2000/svg"><g clip-path="url(#clip0)"><path d="M44.892 5.643c-1.307 0-2.397 1.071-2.397 2.357v2h-3.269V5.643h-.145c-1.307 0-2.397 1.071-2.397 2.357v7.928h.145c1.308 0 2.397-1.07 2.397-2.357v-1.928h3.27v4.285h2.47V5.643h-.074zm99.301 0c-1.307 0-2.397 1.071-2.397 2.357v2h-3.269V5.643h-.145c-1.308 0-2.397 1.071-2.397 2.357v7.928h.145c1.308 0 2.397-1.07 2.397-2.357v-1.928h3.269v4.285h2.47V5.643h-.073zm-113.466 8.5c-1.525 0-2.542-2.429-2.542-5.357 0-2.858 1.09-4.929 2.542-4.929 1.453 0 2.616 2 2.616 4.929 0 3.285-.945 5.357-2.616 5.357zm0-12.215c-2.905 0-4.794 2.429-5.012 6h-2.978V2.071c-1.453 0-2.543 1.143-2.543 2.5v11.357c1.38 0 2.543-1.142 2.543-2.571V9.714h2.978c.218 3.357 2.107 6.357 5.012 6.357 3.342 0 5.158-3.214 5.158-7.357 0-3.786-1.889-6.786-5.158-6.786zM53.9 5.643c-.8 0-1.526.286-2.107 1.143l-3.268 5.571V5.643h-2.47v10.285h1.09c.798 0 1.525-.285 2.106-1.142L52.665 9v4.571c0 1.286 1.09 2.357 2.397 2.357h.146V5.643H53.9zm50.195 0c-.799 0-1.525.286-2.106 1.143l-3.27 5.571V5.643H96.25v10.285h1.09c.799 0 1.525-.285 2.106-1.142L102.86 9v4.571c0 1.286 1.09 2.357 2.398 2.357h.145V5.643h-1.308zm-40.098 5.285c-.581-1.285-1.453-2.214-2.688-2.642l4.504-6.143H62.98l-4.358 6.071V2.143h-.073c-1.453 0-2.542 1-2.542 2.428v11.357h.072c1.453 0 2.543-1 2.543-2.428V9.286c1.307 0 2.252.857 2.687 1.928l1.817 4.714h2.833l-1.962-5zm49.396-5.285h-7.482V7.57h2.543v8.286h.145c1.308 0 2.325-1.071 2.325-2.286v-6h2.542V5.643h-.073zm-25.86 8.428c1.162-1.214 1.743-3.357 1.961-5.071l.146-1.5h1.96l.582 6.5h-4.649v.071zM94.507 14l-.872-8.357h-5.957l-.363 2.5c-.363 2.214-.872 5-2.906 6.214l.146 4.286h.145c1.017 0 1.816-.786 1.816-1.786v-.928h6.828l.073 2.642h.145c1.017 0 1.816-.785 1.816-1.785l.073-2.5-.944-.286zm57.895-1.357c-.581-1.072-1.235-1.929-2.179-2.286l3.704-4.714h-2.687l-3.56 4.643V5.643h-2.47v10.285h.146c1.307 0 2.397-1.07 2.397-2.357v-2.357c1.017 0 1.816.786 2.179 1.643l1.525 3h2.688l-1.743-3.214zm-30.728 1.571h-1.525V9.286a6.8 6.8 0 011.38-.143c1.816 0 2.833 1.071 2.833 2.357 0 1.429-1.017 2.714-2.688 2.714zm.073-6.928c-.581 0-1.235.071-1.598.214V4.214h3.342c1.162 0 2.179-.928 2.179-2.142h-7.918v13.857h4.068c3.051 0 5.303-1.572 5.303-4.357-.146-2.358-2.034-4.286-5.376-4.286zm-43.875 2.785c0-1.785.653-2.785 2.034-2.857h.072c.654 0 1.962.215 2.034 2.286l-4.14.571zm6.32.429c0-3.071-1.526-4.857-4.214-4.857-2.76 0-4.43 2.071-4.43 5.143C75.547 14 77.362 16 80.413 16c1.671 0 2.833-.429 3.487-.714v-2c-.654.428-1.525 1-3.269 1-1.598 0-2.397-.857-2.615-2.572l6.175-.857V10.5zm48.815 4.214c-.218.072-.872.072-1.381.072-1.307 0-2.106-.572-2.106-1.857 0-1.715 1.307-2.143 3.487-2.358v4.143zM127.268 13c0 1.928 1.453 3.071 4.213 3.071h.509c.944 0 2.542-.143 3.269-.285v-6.5c0-2.572-1.744-3.643-3.85-3.643-1.599 0-2.834.428-3.487.786V8.07c1.089-.571 2.106-.928 3.051-.928 1.162 0 2.034.357 2.034 1.643v.643c-3.124.357-5.739.928-5.739 3.571zm-57.387 1.5c-.363 0-.654-.072-.871-.143v-7c.29-.143.653-.143 1.016-.143 1.599 0 2.325 1.143 2.325 3.643.073 1.643-.363 3.643-2.47 3.643zm.218-8.857c-1.38 0-2.615.214-3.487.714l-.072.072V20h.145c1.308 0 2.325-1.072 2.325-2.286V15.93a7.43 7.43 0 001.38.142c2.687 0 4.503-2.143 4.503-5.285 0-3.215-1.816-5.143-4.794-5.143z" fill="#000"/><path fill-rule="evenodd" clip-rule="evenodd" d="M9.08 4.429c.145-.215.073-.358 0-.429-.072-.071-1.38-.857-1.38-.857-.073-.072-.145-.143-.145-.286 0-.214.145-.357.363-.428.872-.215 3.923-.358 4.94-.358h1.525C12.785.786 10.823 0 8.717 0 3.923 0 0 3.857 0 8.571c0 2.072.726 4 2.034 5.429a469.425 469.425 0 014.358-6.143C7.046 6.93 8.644 5 8.862 4.643l.218-.214zM3.414 15.357c1.453 1.143 3.342 1.786 5.303 1.786 4.794 0 8.717-3.857 8.717-8.572 0-1.428-.363-2.785-1.017-3.928.29-.286.654-.714.436-1.286-.073-.143-.436-.571-.509-.643.218.643-.218 1-.508 1.286-.145.143-2.397 2.214-4.94 4.429-2.252 1.928-4.867 3.928-6.32 5.071-2.106 1.5-2.47 1.786-2.47 1.786-.072 0-.145.071-.217.071-.146 0-.218-.071-.29-.143v.072c.217.357.58.786.798.786.073 0 .145 0 .218-.072-.073-.143.145-.214.8-.643z" fill="#E2001A"/><path fill-rule="evenodd" clip-rule="evenodd" d="M9.08 4.429c.146-.215.073-.357 0-.429-.072-.071-1.38-.857-1.38-.857-.073-.071-.145-.143-.145-.286 0-.214.145-.357.363-.428.872-.215 3.923-.357 4.94-.357.508 0 1.452 0 2.106.071.727.071 1.235.214 1.38.5.29.643-.145 1.071-.508 1.357-.145.143-2.397 2.214-4.94 4.429-2.252 1.928-4.867 3.928-6.32 5.071-2.106 1.5-2.47 1.786-2.47 1.786-.072 0-.145.071-.217.071-.218 0-.363-.143-.363-.357 0-.071 0-.143.072-.214 0 0 4.068-5.786 4.867-6.786.727-1 2.543-3.286 2.543-3.286s-.073-.142.072-.285z" fill="#FEFEFE"/></g><defs><clipPath id="clip0"><path fill="#fff" d="M0 0h154v20H0z"/></clipPath></defs></svg>