<svg width="170" height="27" viewBox="0 0 170 27" fill="none" xmlns="http://www.w3.org/2000/svg"><path d="M23.1.8V26h-5.796V5.552H5.928V26H.132V.8H23.1zm23.31 19.8h-11.7L32.48 26h-5.976L37.735.8h5.76L54.763 26h-6.12l-2.232-5.4zm-1.835-4.428l-3.996-9.648-3.996 9.648h7.992zm25.202 10.26c-2.616 0-4.98-.564-7.092-1.692-2.088-1.128-3.732-2.676-4.932-4.644-1.176-1.992-1.764-4.224-1.764-6.696 0-2.472.588-4.692 1.764-6.66 1.2-1.992 2.844-3.552 4.932-4.68C64.797.932 67.161.368 69.777.368c2.616 0 4.968.564 7.056 1.692 2.088 1.128 3.732 2.688 4.932 4.68 1.2 1.968 1.8 4.188 1.8 6.66 0 2.472-.6 4.704-1.8 6.696-1.2 1.968-2.844 3.516-4.932 4.644-2.088 1.128-4.44 1.692-7.056 1.692zm0-4.968c1.488 0 2.832-.336 4.032-1.008a7.363 7.363 0 002.808-2.88c.696-1.224 1.044-2.616 1.044-4.176s-.348-2.952-1.044-4.176A7.116 7.116 0 0073.81 6.38c-1.2-.696-2.544-1.044-4.032-1.044s-2.832.348-4.032 1.044a7.361 7.361 0 00-2.844 2.844c-.672 1.224-1.008 2.616-1.008 4.176s.336 2.952 1.008 4.176a7.621 7.621 0 002.844 2.88c1.2.672 2.544 1.008 4.032 1.008zm45.936-8.604c1.536.456 2.712 1.2 3.528 2.232.816 1.032 1.224 2.304 1.224 3.816 0 2.232-.852 3.972-2.556 5.22-1.68 1.248-4.092 1.872-7.236 1.872h-12.42V.8h11.736c2.928 0 5.208.564 6.84 1.692 1.632 1.128 2.448 2.736 2.448 4.824 0 1.248-.312 2.352-.936 3.312-.624.936-1.5 1.68-2.628 2.232zm-11.664-1.62h5.436c1.272 0 2.232-.252 2.88-.756.648-.528.972-1.296.972-2.304 0-.984-.336-1.74-1.008-2.268-.648-.528-1.596-.792-2.844-.792h-5.436v6.12zm6.408 10.44c2.736 0 4.104-1.08 4.104-3.24 0-2.088-1.368-3.132-4.104-3.132h-6.408v6.372h6.408zm33.529-16.128h-8.064V26h-5.76V5.552h-8.028V.8h21.852v4.752zM147.648.8h20.34v4.644h-14.544v5.184h6.984c3.048 0 5.364.636 6.948 1.908 1.608 1.272 2.412 3.108 2.412 5.508 0 2.52-.888 4.476-2.664 5.868C165.348 25.304 162.84 26 159.6 26h-11.952V.8zm11.628 20.88c1.488 0 2.628-.288 3.42-.864.792-.6 1.188-1.464 1.188-2.592 0-2.208-1.536-3.312-4.608-3.312h-5.832v6.768h5.832z" fill="#000"/></svg>